<svg xmlns="http://www.w3.org/2000/svg" width="212" height="152" viewBox="0 0 212 152" role="img" version="1.1" aria-labelledby="title"><title>University of Hawaii at Hilo</title><path d="M107.5 70L109 70 108 71.8C108 71.8 108 71.8 107.9 71.8 107.9 71.9 107.9 71.9 107.8 71.9L107.8 71.9 108.9 71.9 108.9 71.9C108.9 71.9 108.8 71.9 108.8 71.9 108.8 71.8 108.8 71.8 108.8 71.8 108.8 71.8 108.8 71.7 108.8 71.7 108.8 71.7 108.9 71.6 108.9 71.6L109.8 69.9 109.8 69.3 109.7 69.3C109.7 69.4 109.7 69.4 109.7 69.4 109.7 69.4 109.7 69.4 109.6 69.4L107.5 69.4C107.5 69.4 107.5 69.4 107.5 69.4 107.4 69.4 107.4 69.4 107.4 69.3L107.4 69.3 107.4 70.1 107.4 70.1C107.4 70.1 107.4 70 107.5 70 107.5 70 107.5 70 107.5 70ZM105.7 70C105.8 70 105.9 70.1 106 70.1 106 70.1 106.1 70.2 106.1 70.3 106.2 70.3 106.2 70.4 106.3 70.5 106.3 70.6 106.3 70.7 106.3 70.8 106.3 70.8 106.3 70.9 106.3 71 106.2 71.1 106.2 71.2 106.1 71.2 106.1 71.3 106 71.4 106 71.4 105.9 71.5 105.8 71.5 105.7 71.5 105.6 71.5 105.5 71.5 105.4 71.4 105.4 71.4 105.3 71.3 105.2 71.2 105.2 71.2 105.2 71.1 105.1 71 105.1 70.9 105.1 70.8 105.1 70.8 105.1 70.7 105.1 70.6 105.1 70.5 105.2 70.4 105.2 70.3 105.2 70.3 105.3 70.2 105.4 70.1 105.4 70.1 105.5 70.1 105.6 70 105.7 70ZM105.7 69.5C105.5 69.5 105.4 69.5 105.2 69.6 105 69.6 104.9 69.7 104.8 69.8 104.7 70 104.6 70.1 104.5 70.2 104.4 70.4 104.4 70.6 104.4 70.8 104.4 70.9 104.4 71.1 104.5 71.3 104.6 71.4 104.7 71.6 104.8 71.7 104.9 71.8 105 71.9 105.2 71.9 105.4 72 105.5 72 105.7 72 105.9 72 106 72 106.2 71.9 106.4 71.9 106.5 71.8 106.6 71.7 106.7 71.6 106.8 71.4 106.9 71.3 107 71.1 107 70.9 107 70.8 107 70.6 107 70.4 106.9 70.2 106.8 70.1 106.7 70 106.6 69.8 106.5 69.7 106.4 69.6 106.2 69.6 106 69.5 105.9 69.5 105.7 69.5ZM102.6 69.9C102.6 69.9 102.7 69.9 102.7 69.9 102.8 69.9 102.9 69.9 102.9 70 103 70 103 70 103.1 70.1 103.1 70.1 103.1 70.2 103.1 70.2 103.1 70.3 103.1 70.4 103.1 70.4 103 70.5 103 70.5 102.9 70.5 102.9 70.5 102.8 70.6 102.7 70.6 102.7 70.6 102.6 70.6 102.6 70.6 102.6 70.6 102.5 70.6 102.4 70.6 102.4 70.6 102.3 70.5 102.3 70.5 102.2 70.5 102.2 70.5 102.1 70.4 102.1 70.4 102.1 70.3 102.1 70.2 102.1 70.2 102.1 70.1 102.1 70.1 102.2 70 102.2 70 102.3 70 102.3 69.9 102.4 69.9 102.4 69.9 102.5 69.9 102.6 69.9 102.6 69.9ZM101.8 71.2L101.4 71.8 101.5 71.8C101.5 71.8 101.5 71.8 101.6 71.8 101.6 71.8 101.6 71.8 101.7 71.8 101.7 71.8 101.8 71.9 101.8 71.9 101.9 71.9 102 71.9 102.1 71.9 102.2 71.9 102.3 71.9 102.5 71.9 102.6 71.9 102.8 71.9 103 71.9 103.2 71.8 103.3 71.7 103.5 71.6 103.6 71.5 103.7 71.4 103.8 71.2 103.9 71 103.9 70.8 103.9 70.6 103.9 70.4 103.9 70.2 103.8 70.1 103.7 69.9 103.7 69.8 103.5 69.7 103.4 69.6 103.3 69.5 103.1 69.5 103 69.4 102.8 69.4 102.6 69.4 102.5 69.4 102.3 69.4 102.2 69.4 102.1 69.5 101.9 69.5 101.8 69.6 101.7 69.7 101.6 69.7 101.6 69.8 101.5 70 101.5 70.1 101.5 70.2 101.5 70.4 101.5 70.5 101.5 70.6 101.6 70.7 101.6 70.8 101.7 70.8 101.8 70.9 101.9 71 102 71 102.1 71.1 102.3 71.1 102.4 71.1 102.5 71.1 102.7 71.1 102.8 71 103 71 103.1 70.9 103.3 70.8 103.3 70.9 103.2 71 103.2 71.1 103.1 71.2 103.1 71.3 103 71.3 102.9 71.4 102.8 71.4 102.7 71.5 102.7 71.5 102.6 71.5 102.5 71.5 102.4 71.5 102.3 71.5 102.2 71.5 102.2 71.5 102.1 71.5 102 71.4 102 71.4 101.9 71.4 101.9 71.4 101.9 71.3 101.8 71.3 101.8 71.3L101.8 71.2 101.8 71.2ZM99.5 70.5L99.6 70.5C99.6 70.5 99.6 70.4 99.6 70.4 99.6 70.4 99.6 70.4 99.6 70.4 99.7 70.3 99.7 70.3 99.8 70.3 99.8 70.3 99.9 70.3 99.9 70.3L99.9 71.8C99.9 71.8 99.9 71.8 99.9 71.9 99.9 71.9 99.9 71.9 99.8 71.9L99.8 71.9 100.8 71.9 100.8 71.9C100.7 71.9 100.7 71.9 100.7 71.9 100.7 71.8 100.7 71.8 100.7 71.8L100.7 69.6C100.7 69.5 100.7 69.5 100.7 69.5 100.7 69.5 100.7 69.5 100.8 69.5L100.8 69.4 99.8 69.4 99.8 69.5C99.9 69.5 99.9 69.5 99.9 69.5 99.9 69.5 99.9 69.5 99.9 69.6L99.9 69.7C99.9 69.7 99.9 69.7 99.9 69.7 99.8 69.8 99.8 69.8 99.8 69.8 99.7 69.8 99.7 69.8 99.7 69.8 99.7 69.8 99.6 69.8 99.6 69.8 99.6 69.8 99.6 69.8 99.6 69.8 99.6 69.8 99.6 69.7 99.6 69.7L99.5 69.7 99.5 70.5ZM111.3 23.5C110.6 21.8 111.4 19.6 111.4 19.6 107.8 20.4 107.1 22.6 106 22.8 105.2 23 105.4 20.9 105.4 20.9 105.4 20.9 100.3 23.5 98.5 27.7 97 31.2 98.4 33.2 98.4 33.2L100.3 33.2C100.1 27.3 104.2 25 107 23.5 107.7 23.1 108.2 22.8 108.7 22.5L109.7 21.8 109.5 23C109.5 23 109.2 24.4 109.5 25.8 109.6 26.2 109.8 26.6 109.9 26.9 110.2 27.7 110.6 28.6 110.2 30 109.8 31.2 108.8 32.4 108.1 33.2L109.4 33.2C109.4 33.2 110.8 32.6 111.9 30.1 113.1 26.9 112 25.6 111.3 23.5ZM109.2 29.7C109.3 29.4 109.3 29.1 109.3 28.8 109.3 28.2 109.2 27.8 109 27.3 108.8 26.9 108.7 26.5 108.6 26 108.4 25.4 108.4 24.8 108.4 24.2 108.4 24.1 108.4 24 108.4 23.9 108.1 24 107.8 24.2 107.5 24.4 104.9 25.8 101.3 27.8 101.3 32.8 101.3 32.9 101.3 33.1 101.3 33.2L106.6 33.2C106.9 33 108.8 31.3 109.2 29.7ZM107 44.9L107.5 39.3C106.7 39.6 105.9 39.8 104.9 39.9L104.4 49.2C104.4 49.3 104.4 49.4 104.3 49.4L104.3 49.4C104.2 49.4 104.2 49.3 104.2 49.2L103.6 39.9C102.7 39.8 101.9 39.6 101.1 39.3L101.6 44.9 83.7 37.5C84.3 38.9 90.8 56.2 90.9 56.5L102.3 61.5 102.5 57.1C102.5 57 102.6 57 102.6 57 102.6 57 102.7 57 102.7 57.1L103.1 61.9 103.1 61.9 103.5 66.5C103.5 66.9 103.9 67.2 104.3 67.2 104.7 67.2 105.1 66.9 105.1 66.5L105.5 61.9 105.9 57.1C105.9 57 105.9 57 106 57 106 57 106.1 57 106.1 57.1L106.3 61.5 117.7 56.5C117.8 56.2 124.3 38.9 124.9 37.5L107 44.9ZM93 35.4C94.9 36.6 98.1 39.4 99.8 41.1 95.7 34 92.7 32.4 91.8 32.2L93 35.4ZM100.3 43.1C93.6 36.5 89.3 34.4 87.2 34.1L88.8 38.2 100.3 43.1ZM110.8 34L97.8 34C97.5 34 97.3 34.2 97.3 34.5 97.3 34.8 97.5 35 97.8 35L110.8 35C111.1 35 111.3 34.8 111.3 34.5 111.3 34.2 111.1 34 110.8 34ZM98.5 35.8C99.1 37.3 101.1 39.2 104.3 39.2 107.5 39.2 109.4 37.3 110.1 35.8L98.5 35.8ZM116.7 32.2C115.9 32.4 112.9 34 108.8 41.1 110.5 39.4 113.7 36.6 115.5 35.4L116.7 32.2ZM119.8 38.2L121.4 34.1C119.3 34.4 115 36.5 108.3 43.1L119.8 38.2ZM134.8 44.6L134.8 43.9 129.8 43.9C129.8 37.4 128.2 31.4 125.5 26.4L129.2 26.4 128.6 25.7 125.1 25.7C122.7 21.7 119.7 18.3 116.1 16 116.1 16 115.9 15.9 115.7 15.8 115.6 15.7 114.6 15.4 114.6 15.4 113.6 15 111.9 14.5 111.9 14.5 116.9 16.6 121.2 20.5 124.3 25.7L115.4 25.7C115 24.3 114.5 23 114 21.8 112.5 18.1 110.6 15.4 108.5 13.9 108.5 13.9 108.2 13.8 108 13.8 107.8 13.8 106.9 13.7 106.9 13.7 110.1 15.3 112.8 19.6 114.7 25.7L113.4 25.7C113.4 25.7 113.5 26 113.6 26.4L114.9 26.4C115.3 27.9 115.7 29.5 116 31.1 116 31.1 116.4 31 116.6 30.9L116.7 30.9C116.4 29.3 116 27.9 115.6 26.4L124.7 26.4C127.4 31.4 129.1 37.4 129.1 43.9L123.8 43.9 123.5 44.6 129.1 44.6C129.1 51.1 127.4 57.1 124.7 62L115.7 62C116 60.8 116.3 59.6 116.6 58.3L115.8 58.7C115.5 59.8 115.2 60.9 114.9 62L108.2 62 106.6 62.7 114.7 62.7C112.9 68.7 110.2 73.1 107.1 74.7 107.1 74.7 107.9 74.6 108.1 74.6 108.3 74.6 108.7 74.5 108.7 74.5 110.7 73 112.5 70.3 114 66.7 114.5 65.5 115 64.1 115.4 62.7L124.3 62.7C121.3 67.8 117.2 71.7 112.4 73.8 112.4 73.8 113.7 73.4 114.5 73.1 114.5 73.1 115.8 72.6 116.1 72.5L116.4 72.3C119.9 70 122.8 66.7 125.1 62.7L128.6 62.7C128.7 62.6 129.1 62 129.1 62L125.5 62C128.2 57 129.8 51 129.8 44.6L134.8 44.6ZM134.8 44.6ZM100.4 62L93.7 62C93.4 61 93.1 59.8 92.8 58.7L92 58.3C92.3 59.6 92.6 60.8 92.9 62L83.9 62C81.2 57.1 79.5 51.1 79.5 44.6L85.1 44.6 84.8 43.9 79.5 43.9C79.5 37.4 81.2 31.4 83.9 26.4L93 26.4C92.6 27.9 92.2 29.4 91.9 30.9 91.9 30.9 92.1 31 92.3 31L92.6 31.2C92.9 29.5 93.3 27.9 93.7 26.4L97.7 26.4C97.9 26.2 98.1 25.7 98.1 25.7L93.9 25.7C95.8 19.6 98.5 15.3 101.7 13.7 101.7 13.7 101.4 13.7 101.2 13.7 100.9 13.7 100.1 13.9 100.1 13.9 98 15.4 96.1 18.1 94.6 21.8 94.1 23 93.6 24.3 93.2 25.7L84.3 25.7C87.4 20.5 91.8 16.5 96.9 14.5L96.7 14.5C96.4 14.6 95.5 14.8 95.5 14.8 94.4 15.1 92.7 15.8 92.7 15.8 89 18.2 85.9 21.6 83.5 25.7 83.5 25.7 83.5 25.7 83.5 25.7L79.9 25.7 79.3 26.4 83.1 26.4C80.4 31.4 78.8 37.4 78.8 43.9L73.7 43.9 73.7 44.6 78.8 44.6C78.8 51 80.4 57 83.1 62L79.3 62C79.3 62 79.8 62.7 79.9 62.7L83.5 62.7C85.8 66.8 88.8 70.1 92.4 72.5 92.4 72.5 93.7 73 94.2 73.2 94.2 73.2 95.3 73.6 95.9 73.7 96.1 73.8 96.4 73.8 96.4 73.8 91.5 71.8 87.3 67.8 84.3 62.7L93.1 62.7C93.6 64.1 94.1 65.5 94.6 66.7 96.1 70.3 97.9 73 100 74.6 100 74.6 100.6 74.6 101.1 74.7L101.5 74.7C98.4 73.1 95.7 68.7 93.9 62.7L102 62.7 100.4 62ZM98.7 52C98.7 51.8 98.9 51.3 98.9 51.2 99 51.4 99.3 52.1 99.4 52.4L98.7 52ZM100.5 53.8C100.3 53.4 99 50.6 98.7 50L98.7 50C98.5 50.6 98 52.3 97.8 52.6L98.4 53.2C98.5 53.1 98.6 52.5 98.6 52.5L99.7 53C99.7 53.1 100 53.7 100.1 54L100.5 53.8ZM93.9 50.1C93.9 50 94 49.5 94 49.3 94.1 49.5 94.5 50.2 94.6 50.4L93.9 50.1ZM95.8 51.7C95.6 51.3 94.1 48.8 93.7 48.2L93.7 48.2C93.5 48.8 93.2 50.4 93.1 50.7L93.7 51.3C93.7 51.1 93.8 50.6 93.8 50.6L94.9 51C95 51.1 95.3 51.7 95.4 51.9L95.8 51.7ZM92.9 50.6C92.7 50.4 91.1 47.3 90.9 46.8L90.9 46.8C90.8 47.2 90.8 48.4 90.7 48.6 90.5 48.2 89.5 46.5 89.3 46.2L89.2 46.2C89.3 46.7 89.4 48.8 89.4 49.2L90 49.7C90 49.4 89.9 47.9 89.9 47.8 90 48 90.9 49.4 91.2 49.9L91.2 49.9C91.3 49.5 91.3 48.6 91.3 48.4 91.5 48.7 92.3 50.5 92.5 50.7L92.9 50.6ZM111.1 51.4C111.2 51.2 111.6 50.5 111.7 50.3 111.7 50.4 111.8 50.9 111.8 51.1L111.1 51.4ZM110.4 53C110.5 52.8 110.8 52.2 110.8 52L111.9 51.5C111.9 51.6 112.1 52.1 112.1 52.3L112.7 51.7C112.6 51.4 112.1 49.7 111.9 49.1L111.9 49.1C111.6 49.7 110.2 52.4 110 52.8L110.4 53ZM118 48.6C118.2 48.4 118.6 47.6 118.8 47.4 118.8 47.5 118.8 48.1 118.8 48.3L118 48.6ZM117.1 50.3C117.2 50.1 117.6 49.4 117.7 49.3L118.8 48.8C118.8 48.8 118.8 49.4 118.8 49.6L119.5 48.9C119.4 48.6 119.3 46.8 119.2 46.1L119.2 46.1C118.8 46.7 117 49.7 116.7 50.1L117.1 50.3ZM113.4 51.8C113.5 51.6 114.3 49.8 114.4 49.6L114.4 49.6C114.4 49.8 114.5 50.6 114.6 51.1L114.6 51.1C114.9 50.6 115.7 49.2 115.9 49 115.9 49.1 115.8 50.5 115.8 50.9L116.4 50.3C116.4 50 116.4 47.9 116.4 47.4L116.4 47.4C116.1 47.7 115.2 49.4 115 49.8 115 49.6 114.8 48.3 114.8 48L114.7 48C114.5 48.4 113.1 51.5 113 51.8L113.4 51.8ZM109.7 52.7C109.4 52.8 109 53 108.9 53L109.1 52C109.1 51.4 109.3 50.4 109.3 50.3L108.7 50.6C108.7 50.7 108.5 51.8 108.5 51.9L108.5 52.5C108.4 52.6 108.3 53.6 108.2 53.9 108.4 53.8 109.5 53.4 109.6 53.4L109.7 52.7ZM106 53C106.1 52.8 106.3 52.2 106.4 52 106.5 52.1 106.7 52.8 106.8 53L106 53ZM105.5 54.4C105.6 54.2 105.8 53.6 105.8 53.5L107 53.5C107 53.5 107.2 54.1 107.3 54.3L107.9 53.8C107.7 53.5 106.8 51.6 106.4 50.8L106.4 50.8C106.2 51.3 105.1 53.7 105 54L105.5 54.4ZM101.3 54.2C101.3 54 101.7 52.6 101.8 52.4L101.8 52.4C101.9 52.6 102.3 53.5 102.5 54.1L102.6 54.1C102.8 53.7 103.3 52.5 103.4 52.4 103.5 52.5 103.9 54 104 54.4L104.6 54C104.5 53.7 103.7 51.5 103.5 50.9L103.5 50.9C103.4 51.2 102.8 52.6 102.6 52.9 102.5 52.6 101.9 51.3 101.7 50.9L101.7 50.9C101.6 51.3 100.8 53.7 100.8 53.9L101.3 54.2ZM97.4 52.1C97.1 52 96.9 51.9 96.8 51.8L96.6 50.7C96.5 50.1 96.3 49.2 96.3 49.1L95.6 48.8C95.7 48.9 95.9 50.1 95.9 50.1L96 50.7C96 50.9 96.2 51.9 96.3 52.1 96.5 52.2 97.5 52.7 97.6 52.8L97.4 52.1ZM93 47.6L94.4 48.2 94.3 47.6 92.8 47 93 47.6ZM139.5 51.6C139.5 51.5 139.6 51.4 139.6 51.3 139.7 51.2 139.8 51.1 139.9 51.1 140 51 140.1 51 140.2 50.9 140.3 50.9 140.5 50.9 140.6 50.9 140.7 51 140.9 51 141 51.1 141.1 51.2 141.2 51.2 141.2 51.3 141.3 51.4 141.3 51.5 141.4 51.6 141.4 51.7 141.4 51.9 141.4 52 141.3 52.1 141.3 52.2 141.2 52.3 141.2 52.4 141.1 52.5 141 52.5 140.9 52.6 140.8 52.6 140.7 52.7 140.5 52.7 140.4 52.7 140.3 52.6 140.1 52.6 140 52.6 139.9 52.5 139.8 52.4 139.7 52.4 139.6 52.3 139.6 52.2 139.5 52.1 139.5 52 139.5 51.8 139.5 51.7 139.5 51.6ZM138.7 51.4C138.6 51.6 138.6 51.8 138.7 52 138.7 52.3 138.8 52.5 138.9 52.6 139 52.8 139.1 53 139.3 53.1 139.5 53.3 139.8 53.4 140.1 53.5 140.4 53.5 140.7 53.5 140.9 53.5 141.2 53.4 141.4 53.3 141.5 53.2 141.7 53.1 141.8 52.9 141.9 52.7 142 52.5 142.1 52.3 142.2 52.1 142.2 51.9 142.2 51.7 142.2 51.5 142.2 51.3 142.1 51.1 142 50.9 141.9 50.8 141.7 50.6 141.5 50.4 141.3 50.3 141.1 50.2 140.8 50.1 140.5 50.1 140.2 50.1 139.9 50.1 139.7 50.2 139.5 50.3 139.3 50.4 139.1 50.5 139 50.7 138.9 50.9 138.8 51.1 138.7 51.2 138.7 51.4ZM97 79.6C97.1 79.6 97.2 79.6 97.3 79.7 97.4 79.8 97.5 79.8 97.5 79.9 97.6 80 97.6 80.1 97.6 80.3 97.7 80.4 97.7 80.5 97.6 80.7 97.6 80.8 97.6 80.9 97.5 81 97.4 81.1 97.3 81.2 97.2 81.3 97.2 81.4 97.1 81.4 96.9 81.4 96.8 81.4 96.7 81.4 96.6 81.4 96.5 81.4 96.4 81.4 96.3 81.3 96.2 81.2 96.1 81.1 96 81 96 80.9 95.9 80.8 95.9 80.7 95.9 80.6 95.9 80.5 95.9 80.3 96 80.2 96 80 96.1 79.9 96.2 79.8 96.2 79.7 96.3 79.7 96.4 79.6 96.5 79.6 96.6 79.6 96.8 79.5 96.9 79.5 97 79.6ZM97.2 78.7C97 78.7 96.8 78.7 96.5 78.7 96.3 78.7 96.1 78.8 96 78.9 95.8 79 95.6 79.2 95.4 79.4 95.3 79.6 95.2 79.8 95.1 80.1 95.1 80.5 95.1 80.7 95.1 81 95.2 81.2 95.3 81.4 95.4 81.6 95.5 81.8 95.7 81.9 95.9 82 96 82.1 96.2 82.2 96.4 82.2 96.6 82.3 96.8 82.3 97 82.2 97.2 82.2 97.4 82.2 97.6 82.1 97.8 81.9 98 81.8 98.1 81.6 98.3 81.4 98.4 81.1 98.4 80.8 98.5 80.5 98.5 80.3 98.5 80 98.4 79.8 98.3 79.6 98.2 79.4 98.1 79.2 97.9 79.1 97.7 79 97.5 78.8 97.3 78.8 97.2 78.7ZM91.6 79.5L90.6 79.1 91.6 78 91.6 79.5ZM91.4 80.8L92.4 81.1 92.5 81C92.4 81 92.4 81 92.4 81 92.4 81 92.4 81 92.4 80.9 92.4 80.8 92.4 78 92.4 77.8 92.4 77.7 92.4 77.6 92.4 77.6 92.4 77.6 92.4 77.6 92.5 77.6L92.5 77.5 91.3 77 91.2 77.1C91.3 77.1 91.3 77.2 91.3 77.2 91.3 77.2 91.2 77.3 91.1 77.5 90.9 77.6 89.4 79.4 89.2 79.7 89.2 79.8 89.2 79.8 89.1 79.8 89.1 79.8 89.1 79.8 89 79.8L89 79.9 89.9 80.2 89.9 80.1C89.9 80.1 89.9 80.1 89.9 80.1 89.9 80.1 89.9 80.1 89.9 80 89.9 80 89.9 80 89.9 79.9 90 79.9 90.2 79.6 90.2 79.6L91.6 80.1C91.6 80.1 91.6 80.5 91.6 80.6 91.6 80.6 91.6 80.7 91.6 80.7 91.6 80.7 91.5 80.7 91.5 80.7 91.5 80.7 91.5 80.7 91.5 80.7L91.4 80.8ZM68.8 56.2L68.5 55.2 69.9 55.3 68.8 56.2ZM67.7 56.9L68 57.9 68.1 57.8C68.1 57.8 68.1 57.8 68.1 57.8 68.1 57.7 68.1 57.7 68.2 57.7 68.3 57.6 70.5 55.9 70.6 55.8 70.7 55.7 70.7 55.7 70.7 55.7 70.8 55.6 70.8 55.7 70.8 55.7L70.9 55.7 70.5 54.4 70.4 54.4C70.5 54.5 70.4 54.5 70.4 54.6 70.4 54.6 70.3 54.6 70 54.6 69.8 54.6 67.5 54.5 67.1 54.5 67.1 54.5 67.1 54.5 67.1 54.4 67 54.4 67 54.4 67 54.4L66.9 54.4 67.2 55.3 67.3 55.3C67.3 55.3 67.3 55.3 67.3 55.2 67.3 55.2 67.3 55.2 67.3 55.2 67.3 55.2 67.4 55.2 67.4 55.2 67.5 55.2 67.8 55.2 67.9 55.2L68.3 56.6C68.3 56.6 68 56.8 68 56.9 67.9 56.9 67.9 56.9 67.9 56.9 67.8 56.9 67.8 56.9 67.8 56.9 67.8 56.9 67.8 56.9 67.8 56.9L67.7 56.9ZM73.3 65.3L72.8 64.5 74.2 64.1 73.3 65.3ZM72.5 66.3L73.1 67.2 73.1 67.1C73.1 67.1 73.1 67.1 73.1 67 73.1 67 73.1 67 73.1 67 73.2 66.8 74.9 64.6 74.9 64.5 75 64.3 75.1 64.3 75.1 64.3 75.1 64.3 75.2 64.3 75.2 64.3L75.3 64.3 74.5 63.2 74.4 63.2C74.5 63.2 74.5 63.3 74.4 63.3 74.4 63.3 74.3 63.4 74.1 63.4 73.9 63.5 71.6 64 71.3 64.1 71.2 64.1 71.2 64.1 71.2 64.1 71.2 64.1 71.1 64.1 71.1 64.1L71 64.1 71.5 64.9 71.6 64.9C71.6 64.9 71.6 64.8 71.6 64.8 71.6 64.8 71.6 64.8 71.6 64.8 71.7 64.7 71.7 64.7 71.7 64.7 71.8 64.7 72.1 64.6 72.2 64.6L73 65.8C73 65.9 72.7 66.2 72.7 66.2 72.7 66.3 72.7 66.3 72.7 66.3 72.6 66.3 72.6 66.3 72.6 66.3 72.6 66.3 72.6 66.3 72.5 66.3L72.5 66.3ZM107.3 81.6L106.3 81.6 106.7 80.2 107.3 81.6ZM107.7 82.8L108.8 82.7 108.8 82.6C108.7 82.6 108.7 82.6 108.7 82.6 108.7 82.6 108.6 82.6 108.6 82.6 108.6 82.4 107.4 79.9 107.3 79.7 107.3 79.6 107.3 79.6 107.3 79.5 107.3 79.5 107.3 79.5 107.3 79.5L107.3 79.4 106 79.4 106 79.5C106.1 79.5 106.1 79.6 106.1 79.6 106.1 79.6 106.1 79.8 106 79.9 106 80.1 105.3 82.4 105.2 82.8 105.2 82.8 105.2 82.8 105.2 82.8 105.2 82.9 105.1 82.9 105.1 82.9L105.1 83 106.1 82.9 106.1 82.8C106.1 82.8 106 82.8 106 82.8 106 82.8 106 82.8 106 82.8 106 82.7 106 82.7 106 82.7 106 82.6 106.1 82.3 106.1 82.2L107.6 82.1C107.6 82.2 107.7 82.5 107.8 82.6 107.8 82.6 107.8 82.6 107.8 82.6 107.8 82.7 107.8 82.7 107.8 82.7 107.7 82.7 107.7 82.7 107.7 82.7L107.7 82.8ZM79.2 73.7L80.1 74.5 80.2 74.5C80.2 74.4 80.2 74.4 80.2 74.4 80.2 74.4 80.2 74.3 80.2 74.3L80.6 72.2C80.8 72.1 81.4 72 81.6 72 81.8 72 81.9 72 82.1 72 82.2 72 82.3 72 82.4 72L82.4 71.9 81.5 71.1 81.4 71.2C81.4 71.2 81.5 71.3 81.5 71.3 81.5 71.3 81.5 71.4 81.4 71.4 81.4 71.4 81.4 71.4 81.3 71.5 81.3 71.5 81.2 71.5 81 71.5 80.9 71.5 79.6 71.7 79.5 71.7L80.5 70.6C80.5 70.5 80.6 70.5 80.6 70.5 80.6 70.5 80.7 70.6 80.7 70.6L80.8 70.5 79.9 69.7 79.8 69.8C79.9 69.8 79.9 69.8 79.9 69.9 79.9 69.9 79.9 69.9 79.9 70L77.9 72.3C77.9 72.3 77.8 72.3 77.8 72.3 77.7 72.3 77.7 72.3 77.7 72.3L77.6 72.3 78.5 73.1 78.6 73.1C78.5 73 78.5 73 78.5 73 78.5 72.9 78.5 72.9 78.5 72.8L78.9 72.4 79.8 72.2C79.8 72.3 79.5 73.5 79.5 73.5 79.5 73.6 79.4 73.6 79.4 73.7 79.4 73.7 79.4 73.7 79.3 73.7 79.3 73.7 79.2 73.7 79.2 73.6L79.2 73.7ZM103.4 83L104.7 83 104.7 82.9C104.6 82.9 104.6 82.9 104.6 82.8 104.6 82.8 104.5 82.8 104.5 82.8L103.5 80.8C103.6 80.7 104.1 80.2 104.2 80.1 104.3 79.9 104.4 79.8 104.5 79.7 104.7 79.6 104.7 79.6 104.8 79.6L104.8 79.5 103.5 79.5 103.5 79.6C103.6 79.6 103.6 79.6 103.7 79.6 103.7 79.6 103.7 79.7 103.7 79.7 103.7 79.7 103.7 79.8 103.6 79.8 103.6 79.9 103.5 80 103.4 80 103.4 80.1 102.4 81.1 102.4 81.1L102.4 79.7C102.4 79.6 102.4 79.6 102.5 79.6 102.5 79.6 102.6 79.5 102.6 79.5L102.6 79.5 101.4 79.4 101.4 79.5C101.5 79.5 101.5 79.5 101.5 79.5 101.6 79.5 101.6 79.6 101.6 79.6L101.5 82.6C101.5 82.7 101.5 82.7 101.4 82.8 101.4 82.8 101.4 82.8 101.3 82.8L101.3 82.9 102.5 82.9 102.5 82.8C102.5 82.8 102.4 82.8 102.4 82.8 102.4 82.8 102.3 82.7 102.3 82.7L102.4 82 102.9 81.4C102.9 81.4 103.5 82.6 103.5 82.6 103.6 82.7 103.6 82.7 103.6 82.7 103.6 82.8 103.5 82.8 103.5 82.8 103.5 82.9 103.4 82.9 103.4 82.9L103.4 83ZM88.5 78.9L86.9 78 87.2 77.3 88.3 77.9C88.3 77.9 88.3 77.9 88.3 78 88.4 78 88.3 78 88.3 78.1L88.4 78.1 88.8 77.2 88.8 77.2C88.7 77.2 88.7 77.3 88.7 77.3 88.6 77.3 88.6 77.3 88.6 77.3L87.5 76.8 87.8 76.2 89.5 77C89.5 77 89.5 77.1 89.5 77.1 89.5 77.1 89.5 77.2 89.5 77.2L89.5 77.3 90 76.3 90 76.3C89.9 76.4 89.9 76.4 89.9 76.4 89.8 76.4 89.8 76.4 89.8 76.4L87.2 75.1 87.2 75.2C87.2 75.2 87.3 75.2 87.3 75.3 87.3 75.3 87.3 75.3 87.3 75.4L85.9 78.1C85.9 78.1 85.9 78.2 85.8 78.2 85.8 78.1 85.7 78.1 85.7 78.1L85.7 78.2 88.2 79.5C88.2 79.5 88.2 79.5 88.3 79.5 88.3 79.6 88.3 79.6 88.3 79.7L88.3 79.7 88.8 78.8 88.7 78.8C88.6 78.9 88.6 78.9 88.5 78.9ZM83.4 76L81.9 75 82.4 74.4 83.3 75C83.3 75.1 83.4 75.1 83.4 75.1 83.4 75.2 83.4 75.2 83.3 75.3L83.4 75.3 84 74.5 83.9 74.4C83.9 74.5 83.8 74.5 83.8 74.5 83.8 74.5 83.7 74.5 83.7 74.5L82.8 73.8 83.1 73.3 84.6 74.4C84.6 74.4 84.7 74.4 84.7 74.4 84.7 74.5 84.6 74.5 84.6 74.6L84.7 74.6 85.3 73.8 85.2 73.7C85.2 73.8 85.1 73.8 85.1 73.8 85.1 73.8 85.1 73.8 85 73.8L82.7 72.1 82.6 72.2C82.7 72.2 82.7 72.3 82.7 72.3 82.7 72.3 82.7 72.4 82.7 72.4L81 74.9C80.9 74.9 80.9 74.9 80.8 74.9 80.8 74.9 80.8 74.9 80.7 74.9L80.7 75 83 76.6C83 76.6 83 76.7 83 76.7 83.1 76.7 83 76.8 83 76.8L83.1 76.9 83.7 76 83.6 76C83.5 76.1 83.4 76.1 83.4 76ZM69.3 50.1L67.6 50.5C67.4 50.5 67.2 50.6 67 50.7 66.8 50.8 66.7 50.9 66.6 51 66.5 51.2 66.4 51.4 66.3 51.6 66.3 51.8 66.3 52 66.4 52.3 66.4 52.5 66.5 52.8 66.6 52.9 66.7 53.1 66.9 53.2 67 53.3 67.2 53.4 67.4 53.4 67.6 53.5 67.8 53.5 68 53.5 68.2 53.4L69.9 53C70 53 70 53 70 53.1 70.1 53.1 70.1 53.1 70.1 53.2L70.2 53.2 69.9 52.1 69.8 52.1C69.8 52.1 69.8 52.1 69.8 52.2 69.8 52.2 69.8 52.2 69.7 52.2L67.8 52.6C67.6 52.7 67.5 52.6 67.4 52.5 67.3 52.4 67.2 52.3 67.1 52.1 67.1 51.9 67.1 51.8 67.2 51.6 67.2 51.5 67.4 51.4 67.6 51.4L69.4 51C69.5 51 69.5 51 69.6 51 69.6 51 69.6 51 69.6 51.1L69.7 51 69.5 49.9 69.4 49.9C69.4 50 69.4 50 69.4 50.1 69.4 50.1 69.4 50.1 69.3 50.1ZM75.9 65.5L74.5 66.7C74.4 66.8 74.2 66.9 74.1 67.1 74 67.3 73.9 67.4 73.9 67.6 73.9 67.8 73.9 68 73.9 68.2 74 68.4 74.1 68.6 74.3 68.8 74.5 69 74.6 69.2 74.8 69.3 75 69.4 75.2 69.4 75.4 69.4 75.5 69.4 75.7 69.4 75.9 69.3 76.1 69.2 76.2 69.1 76.4 69L77.8 67.8C77.8 67.8 77.9 67.8 77.9 67.8 77.9 67.8 78 67.8 78 67.9L78.1 67.8 77.3 67 77.3 67C77.3 67 77.3 67.1 77.3 67.1 77.3 67.1 77.3 67.2 77.2 67.2L75.7 68.4C75.6 68.6 75.4 68.6 75.3 68.6 75.1 68.5 75 68.4 74.9 68.3 74.8 68.1 74.7 68 74.7 67.9 74.7 67.7 74.8 67.6 74.9 67.4L76.4 66.2C76.5 66.2 76.5 66.2 76.5 66.2 76.6 66.2 76.6 66.2 76.6 66.2L76.7 66.1 76 65.2 75.9 65.3C75.9 65.3 75.9 65.4 76 65.4 76 65.5 76 65.5 75.9 65.5ZM69.6 61L71.6 59.9 71.7 59.9 70 61.8 72.5 61.6 72.5 61.6 70.5 62.7C70.4 62.7 70.4 62.7 70.4 62.7 70.3 62.6 70.3 62.6 70.3 62.6L70.2 62.6 70.7 63.5 70.8 63.5C70.8 63.5 70.8 63.4 70.8 63.4 70.8 63.4 70.8 63.3 70.9 63.3L73.5 61.9C73.6 61.9 73.6 61.9 73.6 61.9 73.7 61.9 73.7 62 73.7 62L73.8 61.9 73.1 60.7 73 60.8C73 60.8 73 60.8 73.1 60.8 73.1 60.9 73.1 60.9 73 60.9 73 60.9 72.9 60.9 72.8 60.9 72.7 60.9 71.7 61 71.6 61 71.6 61 72.3 60.2 72.4 60.1 72.5 60 72.5 60 72.6 60 72.6 60 72.6 60 72.6 60 72.6 60 72.7 60 72.7 60.1L72.8 60 72.2 58.8 72.1 58.8C72.1 58.8 72.1 58.9 72.1 58.9 72.1 58.9 72.1 59 72 59L69.3 60.4C69.3 60.4 69.3 60.4 69.2 60.4 69.2 60.4 69.2 60.3 69.2 60.3L69.1 60.3 69.5 61.3 69.6 61.2C69.6 61.2 69.5 61.1 69.5 61.1 69.5 61 69.6 61 69.6 61ZM137.2 58.8C137.2 58.7 137.3 58.6 137.4 58.5 137.5 58.5 137.6 58.4 137.7 58.3 137.8 58.3 137.9 58.3 138 58.3 138.1 58.3 138.3 58.3 138.4 58.4 138.5 58.5 138.6 58.5 138.7 58.6 138.8 58.7 138.9 58.8 138.9 58.9 139 59 139 59.1 139 59.2 139 59.3 139 59.5 138.9 59.6 138.9 59.7 138.8 59.8 138.7 59.9 138.6 59.9 138.5 60 138.4 60 138.3 60.1 138.2 60.1 138.1 60.1 138 60.1 137.8 60 137.7 60 137.6 59.9 137.5 59.9 137.4 59.8 137.3 59.7 137.2 59.6 137.2 59.5 137.1 59.4 137.1 59.3 137.1 59.1 137.1 59 137.1 58.9 137.2 58.8ZM136.4 58.5C136.3 58.7 136.3 58.9 136.3 59.1 136.2 59.3 136.3 59.5 136.3 59.7 136.4 59.9 136.5 60.1 136.7 60.3 136.9 60.5 137.1 60.6 137.4 60.7 137.7 60.9 137.9 60.9 138.2 60.9 138.4 60.9 138.6 60.9 138.8 60.8 139 60.7 139.2 60.6 139.3 60.4 139.5 60.2 139.6 60.1 139.7 59.9 139.7 59.7 139.8 59.5 139.8 59.3 139.8 59.1 139.8 58.9 139.8 58.7 139.7 58.5 139.6 58.3 139.4 58.1 139.2 57.9 139 57.8 138.7 57.6 138.4 57.5 138.2 57.5 137.9 57.5 137.7 57.5 137.4 57.5 137.3 57.6 137.1 57.7 136.9 57.8 136.7 58 136.6 58.1 136.5 58.3 136.4 58.5ZM136.1 62.8L135.3 62.3 135.6 61.7C135.7 61.6 135.8 61.5 135.9 61.5 136 61.5 136.1 61.5 136.2 61.6 136.4 61.7 136.5 61.7 136.5 61.9 136.5 62 136.5 62.1 136.4 62.2L136.1 62.8ZM134.5 62.8L137 64.3C137.1 64.4 137.1 64.4 137.1 64.4 137.1 64.4 137.1 64.5 137.1 64.5L137.2 64.5 137.8 63.6 137.7 63.5C137.7 63.6 137.6 63.6 137.6 63.6 137.6 63.6 137.5 63.6 137.5 63.6L136.6 63.1 137 62.5C137.1 62.3 137.1 62.2 137.2 62.1 137.2 61.9 137.3 61.8 137.2 61.6 137.2 61.5 137.2 61.4 137.1 61.2 137 61.1 136.8 61 136.6 60.9 136.4 60.7 136.3 60.7 136.1 60.7 135.9 60.6 135.8 60.7 135.7 60.7 135.6 60.8 135.4 60.8 135.3 60.9 135.2 61.1 135.1 61.2 135.1 61.3L134.2 62.7 134.3 62.8C134.3 62.8 134.3 62.8 134.3 62.8 134.4 62.7 134.4 62.7 134.5 62.8ZM141.3 54.5L138.4 53.6C138.4 53.6 138.3 53.6 138.3 53.5 138.3 53.5 138.3 53.5 138.3 53.4L138.3 53.4 137.9 54.5 138 54.5C138.1 54.4 138.1 54.4 138.1 54.4 138.1 54.3 138.2 54.3 138.2 54.4L139.7 54.8C139.5 54.9 138.2 55.4 138.1 55.4 137.9 55.4 137.9 55.5 137.9 55.4 137.8 55.4 137.8 55.4 137.8 55.4 137.8 55.3 137.8 55.3 137.8 55.3L137.7 55.3 137.2 56.7 137.3 56.7C137.3 56.7 137.3 56.6 137.3 56.6 137.4 56.6 137.4 56.6 137.5 56.6L140.3 57.5C140.4 57.5 140.4 57.6 140.4 57.6 140.4 57.6 140.4 57.7 140.4 57.7L140.5 57.7 140.9 56.7 140.8 56.7C140.8 56.7 140.7 56.8 140.7 56.8 140.7 56.8 140.6 56.8 140.6 56.8L138.6 56.2 138.6 56.1C138.9 56.1 140 55.7 140.2 55.6 140.5 55.5 140.7 55.4 140.8 55.4 141 55.4 141.1 55.3 141.1 55.3 141.1 55.4 141.2 55.4 141.2 55.4 141.2 55.5 141.2 55.5 141.1 55.6L141.2 55.6 141.6 54.5 141.5 54.4C141.4 54.5 141.4 54.5 141.4 54.5 141.4 54.6 141.3 54.6 141.3 54.5ZM121.7 78.6L120.4 75.8C120.4 75.8 120.4 75.7 120.4 75.7 120.4 75.7 120.5 75.7 120.5 75.6L120.5 75.5 119.5 76 119.5 76.1C119.6 76.1 119.6 76.1 119.6 76.1 119.7 76.1 119.7 76.1 119.7 76.2L120.4 77.6C120.2 77.5 119 76.8 118.8 76.8 118.7 76.7 118.7 76.7 118.7 76.7 118.7 76.6 118.7 76.6 118.7 76.5 118.7 76.5 118.7 76.5 118.8 76.5L118.7 76.4 117.3 77 117.4 77.1C117.4 77.1 117.4 77 117.5 77 117.5 77 117.6 77.1 117.6 77.1L118.8 79.9C118.9 79.9 118.9 79.9 118.8 80 118.8 80 118.8 80 118.7 80.1L118.8 80.1 119.8 79.7 119.7 79.6C119.7 79.6 119.7 79.7 119.6 79.7 119.6 79.6 119.6 79.6 119.5 79.6L118.7 77.7 118.7 77.7C118.9 77.8 120 78.4 120.2 78.5 120.4 78.6 120.6 78.7 120.7 78.8 120.8 78.9 120.9 78.9 120.9 79 121 79 121 79 120.9 79.1 120.9 79.1 120.8 79.1 120.8 79.1L120.9 79.2 121.9 78.7 121.9 78.6C121.8 78.6 121.8 78.6 121.7 78.6 121.7 78.6 121.7 78.6 121.7 78.6ZM126.4 71.7L125.4 72.4 125.4 72.5C125.5 72.5 125.5 72.4 125.6 72.4 125.6 72.4 125.7 72.4 125.7 72.5L127.6 74.8C127.6 74.9 127.6 74.9 127.6 75 127.6 75 127.5 75 127.5 75.1L127.5 75.2 128.5 74.4 128.5 74.3C128.4 74.3 128.4 74.4 128.3 74.4 128.3 74.4 128.3 74.4 128.2 74.3L126.4 72C126.3 71.9 126.3 71.9 126.3 71.8 126.3 71.8 126.4 71.8 126.4 71.7L126.4 71.7ZM116.7 77.2L115.5 77.6 115.6 77.7C115.6 77.7 115.7 77.7 115.7 77.7 115.8 77.7 115.8 77.7 115.8 77.8L116.8 80.6C116.8 80.7 116.8 80.7 116.8 80.7 116.8 80.8 116.7 80.8 116.7 80.8L116.7 80.9 117.9 80.5 117.8 80.4C117.8 80.4 117.7 80.4 117.7 80.4 117.7 80.4 117.6 80.4 117.6 80.3L116.6 77.5C116.6 77.5 116.6 77.4 116.6 77.4 116.6 77.4 116.7 77.3 116.7 77.3L116.7 77.2ZM111.5 78.8L111.4 78.5C111.3 78.6 111.2 78.7 111.1 78.8 111 78.9 111 79 110.9 79.1 110.8 79.2 110.8 79.4 110.7 79.5 110.7 79.6 110.7 79.8 110.8 80 110.8 80.2 110.9 80.3 111 80.4 111.1 80.6 111.2 80.6 111.4 80.6 111.5 80.5 111.6 80.5 111.7 80.4 111.7 80.3 111.8 80.1 111.7 79.9 111.7 79.8 111.6 79.6 111.5 79.6 111.4 79.5 111.2 79.5 111.1 79.5 111.1 79.3 111.1 79.2 111.2 79.1 111.3 78.9 111.4 78.8 111.5 78.8ZM134 67L133.3 67.8 132.5 66.6 134 67ZM135.1 67.5L135.7 66.7 135.7 66.7C135.7 66.7 135.6 66.7 135.6 66.7 135.6 66.7 135.6 66.7 135.5 66.7 135.4 66.7 132.7 65.8 132.6 65.8 132.5 65.7 132.4 65.7 132.4 65.7 132.4 65.7 132.4 65.6 132.4 65.6L132.3 65.5 131.5 66.6 131.6 66.6C131.6 66.6 131.7 66.6 131.7 66.6 131.7 66.6 131.8 66.7 131.9 66.9 132 67.1 133.2 69 133.4 69.4 133.5 69.4 133.5 69.4 133.5 69.4 133.5 69.5 133.4 69.5 133.4 69.5L133.5 69.6 134.1 68.9 134 68.8C134 68.8 134 68.8 134 68.8 134 68.8 134 68.8 133.9 68.8 133.9 68.8 133.9 68.8 133.9 68.7 133.8 68.7 133.7 68.4 133.6 68.4L134.5 67.2C134.6 67.2 134.9 67.3 135 67.3 135 67.4 135 67.4 135 67.4 135.1 67.4 135.1 67.4 135.1 67.4 135.1 67.5 135.1 67.5 135.1 67.5L135.1 67.5ZM123.8 76.2L122.9 76.7 122.6 75.3 123.8 76.2ZM124.7 77.1L125.6 76.5 125.5 76.5C125.5 76.5 125.5 76.5 125.5 76.5 125.4 76.5 125.4 76.5 125.4 76.5 125.3 76.4 123.1 74.6 123 74.5 122.9 74.5 122.8 74.4 122.8 74.4 122.8 74.3 122.8 74.3 122.9 74.3L122.8 74.2 121.7 74.9 121.7 74.9C121.8 74.9 121.8 74.9 121.8 75 121.8 75 121.9 75.1 121.9 75.3 122 75.5 122.4 77.8 122.5 78.2 122.5 78.2 122.5 78.2 122.5 78.3 122.5 78.3 122.4 78.3 122.4 78.3L122.5 78.4 123.3 78 123.2 77.9C123.2 77.9 123.2 77.9 123.2 77.9 123.2 77.9 123.2 77.9 123.1 77.9 123.1 77.8 123.1 77.8 123.1 77.8 123.1 77.7 123 77.4 123 77.3L124.3 76.6C124.3 76.6 124.6 76.8 124.6 76.8 124.7 76.9 124.7 76.9 124.7 76.9 124.7 76.9 124.7 77 124.7 77 124.7 77 124.7 77 124.7 77L124.7 77.1ZM114.5 80.3L113.5 80.5 113.7 79.1 114.5 80.3ZM115.2 81.4L116.2 81.1 116.1 81C116.1 81 116.1 81 116.1 81 116 81 116 81 116 81 115.9 80.8 114.3 78.6 114.2 78.5 114.1 78.4 114.1 78.3 114.1 78.3 114.1 78.2 114.1 78.2 114.1 78.2L114.1 78.1 112.8 78.4 112.9 78.5C112.9 78.5 112.9 78.5 113 78.6 113 78.6 113 78.7 112.9 78.9 112.9 79.1 112.7 81.5 112.7 81.8 112.7 81.9 112.7 81.9 112.7 81.9 112.7 81.9 112.6 82 112.6 82L112.6 82.1 113.6 81.8 113.5 81.7C113.5 81.7 113.5 81.7 113.5 81.8 113.5 81.8 113.4 81.7 113.4 81.7 113.4 81.7 113.4 81.6 113.4 81.6 113.4 81.6 113.5 81.2 113.5 81.1L114.9 80.8C114.9 80.8 115.1 81.1 115.2 81.1 115.2 81.2 115.2 81.2 115.2 81.2 115.2 81.3 115.2 81.3 115.2 81.3 115.2 81.3 115.2 81.3 115.1 81.3L115.2 81.4ZM132.3 70.8L133.2 69.9 133.1 69.8C133.1 69.8 133.1 69.9 133.1 69.9 133 69.9 133 69.9 132.9 69.9L130.9 69.3C130.9 69.2 130.8 68.5 130.8 68.3 130.8 68.1 130.8 68 130.8 67.8 130.8 67.7 130.8 67.6 130.8 67.5L130.7 67.5 129.9 68.4 130 68.4C130 68.4 130 68.4 130 68.4 130.1 68.4 130.1 68.4 130.2 68.4 130.2 68.4 130.2 68.5 130.2 68.6 130.2 68.6 130.2 68.7 130.2 68.8 130.2 69 130.3 70.3 130.3 70.4L129.3 69.3C129.2 69.3 129.2 69.3 129.2 69.2 129.3 69.2 129.3 69.2 129.3 69.1L129.2 69.1 128.4 69.9 128.5 70C128.5 69.9 128.5 69.9 128.6 69.9 128.6 69.9 128.6 69.9 128.7 69.9L130.8 72C130.9 72.1 130.9 72.1 130.9 72.1 130.9 72.2 130.9 72.2 130.8 72.2L130.9 72.3 131.7 71.5 131.7 71.4C131.6 71.4 131.6 71.5 131.6 71.5 131.5 71.5 131.5 71.5 131.4 71.4L131 71 130.9 70.1C130.9 70.1 132.1 70.5 132.2 70.5 132.3 70.5 132.3 70.5 132.3 70.6 132.3 70.6 132.4 70.6 132.3 70.7 132.3 70.7 132.3 70.8 132.3 70.8L132.3 70.8ZM112.6 77.5L112.7 78 113.9 77.6 113.8 77.1 112.6 77.5ZM112.7 77.7L113.9 77.4M142.8 34.3L143 34.2C142.9 34.1 142.8 33.9 142.7 33.8 142.5 33.7 142.4 33.5 142.2 33.4 142 33.4 141.9 33.3 141.7 33.3 141.5 33.2 141.3 33.2 141 33.3 140.8 33.4 140.6 33.5 140.5 33.7 140.3 33.8 140.3 34 140.3 34.3 140.4 34.5 140.5 34.6 140.7 34.7 140.8 34.8 141 34.8 141.2 34.8 141.5 34.7 141.6 34.6 141.7 34.4 141.8 34.2 141.8 34 141.7 33.8 141.9 33.8 142.1 33.8 142.3 33.9 142.5 34 142.6 34.2 142.8 34.3ZM142.8 37.3L142.5 35.4 142.4 35.5C142.4 35.6 142.4 35.6 142.4 35.7 142.4 35.7 142.3 35.8 142.2 35.8L138.4 36.6C138.3 36.6 138.3 36.6 138.2 36.6 138.2 36.5 138.2 36.4 138.2 36.4L138 36.4 138.4 38.2 138.5 38.2C138.5 38.1 138.5 38 138.5 37.9 138.5 37.9 138.6 37.8 138.7 37.8L142.5 37C142.6 37 142.6 37 142.6 37.1 142.7 37.1 142.7 37.2 142.7 37.3L142.8 37.3ZM71.3 23L70.3 24.5 70.4 24.6C70.5 24.5 70.5 24.5 70.6 24.4 70.6 24.4 70.6 24.4 70.7 24.4L74.1 26.5C74.1 26.5 74.2 26.6 74.1 26.6 74.1 26.7 74.1 26.7 74.1 26.8L74.2 26.9 75.1 25.3 75 25.2C75 25.3 74.9 25.4 74.9 25.4 74.8 25.4 74.8 25.4 74.7 25.4L71.4 23.4C71.3 23.3 71.3 23.3 71.3 23.2 71.3 23.2 71.3 23.1 71.4 23L71.3 23ZM93 6.6L91.2 7.1 91.3 7.3C91.3 7.2 91.4 7.2 91.5 7.2 91.5 7.2 91.6 7.3 91.6 7.3L92.8 11.1C92.9 11.1 92.8 11.2 92.8 11.2 92.8 11.3 92.7 11.3 92.6 11.3L92.6 11.4 94.4 10.9 94.4 10.8C94.3 10.8 94.2 10.8 94.1 10.8 94.1 10.8 94 10.8 94 10.7L92.8 7C92.8 6.9 92.8 6.8 92.8 6.8 92.9 6.8 92.9 6.7 93 6.7L93 6.6ZM141.5 31.9L140.9 30.2 140.8 30.2C140.8 30.3 140.8 30.4 140.8 30.5 140.8 30.5 140.8 30.6 140.7 30.6L137 31.9C137 31.9 136.9 31.9 136.9 31.9 136.8 31.8 136.8 31.8 136.8 31.7L136.6 31.7 137.3 33.5 137.4 33.4C137.3 33.4 137.3 33.3 137.3 33.2 137.3 33.2 137.4 33.1 137.4 33.1L141.1 31.8C141.2 31.7 141.2 31.7 141.3 31.8 141.3 31.8 141.4 31.9 141.4 32L141.5 31.9ZM134.3 19L133.2 17.7 133.1 17.8C133.1 17.8 133.1 17.9 133.1 17.9 133.2 17.9 133.1 18 133.1 18 133.1 18 130.7 21.3 130.7 21.3 130.6 21.3 130.5 21.3 130.4 21.2L130.3 21.3 131.5 22.8 131.6 22.7C131.6 22.6 131.6 22.6 131.6 22.5 131.6 22.5 131.6 22.4 131.6 22.4 131.6 22.4 131.7 22.4 131.8 22.3 131.9 22.3 133.7 21.7 133.8 21.6 133.9 21.6 134 21.5 134.1 21.5L134.1 21.5C134.1 21.6 134 21.7 133.9 21.8 133.8 21.9 132.8 23.4 132.7 23.5 132.7 23.6 132.6 23.7 132.6 23.7 132.5 23.7 132.4 23.7 132.3 23.6L132.2 23.6 133.3 25.3 133.4 25.2C133.3 25 133.4 24.9 133.4 24.9 133.5 24.9 137 23.5 137 23.5 137.1 23.4 137.2 23.4 137.2 23.4 137.3 23.4 137.4 23.4 137.4 23.5L137.5 23.4 136.7 22.2 136.6 22.2C136.6 22.3 136.7 22.3 136.7 22.4 136.7 22.4 136.7 22.5 136.6 22.5 136.6 22.6 134.2 23.5 134.1 23.5L134.1 23.5C134.2 23.5 135.5 21.5 135.5 21.4 135.6 21.3 135.7 21.3 135.7 21.3 135.7 21.2 135.8 21.2 135.8 21.2 135.9 21.3 135.9 21.3 136 21.4L136.1 21.3 134.9 19.8 134.9 19.9C134.9 19.9 134.9 20 134.9 20 134.9 20.1 134.9 20.1 134.9 20.2 134.8 20.2 134.7 20.2 134.6 20.3 134.5 20.3 132.3 21.1 132.3 21.1L132.3 21.1C132.3 21 133.9 19 133.9 18.9 133.9 18.9 134 18.9 134 18.9 134.1 18.9 134.1 19 134.2 19L134.3 19ZM137 28.4L136.3 27.1 138.2 26.9 137 28.4ZM135.7 29.6L136.4 31.1 136.5 31C136.5 31 136.5 31 136.5 30.9 136.5 30.9 136.5 30.8 136.5 30.8 136.6 30.7 139.1 27.6 139.2 27.5 139.3 27.4 139.4 27.3 139.4 27.3 139.4 27.3 139.5 27.3 139.5 27.4L139.6 27.3 138.8 25.6 138.7 25.6C138.7 25.7 138.7 25.8 138.6 25.8 138.6 25.8 138.5 25.8 138.2 25.9 137.9 25.9 134.7 26.2 134.2 26.3 134.2 26.3 134.1 26.3 134.1 26.2 134.1 26.2 134 26.2 134 26.1L133.9 26.2 134.6 27.4 134.7 27.4C134.7 27.4 134.7 27.3 134.7 27.3 134.7 27.3 134.7 27.2 134.8 27.2 134.8 27.2 134.8 27.2 134.9 27.2 134.9 27.2 135.4 27.2 135.5 27.1L136.5 29.1C136.5 29.1 136.1 29.5 136.1 29.6 136 29.6 136 29.6 136 29.6 135.9 29.7 135.9 29.7 135.9 29.6 135.9 29.6 135.9 29.6 135.8 29.6L135.7 29.6ZM129.2 17.7L128 16.7 129.8 15.9 129.2 17.7ZM128.4 19.3L129.5 20.4 129.6 20.3C129.6 20.3 129.6 20.3 129.6 20.2 129.5 20.2 129.5 20.2 129.6 20.1 129.6 20 130.8 16.3 130.9 16.1 131 15.9 131 15.8 131 15.8 131.1 15.8 131.1 15.8 131.2 15.8L131.3 15.7 129.8 14.4 129.7 14.5C129.8 14.6 129.8 14.6 129.8 14.7 129.7 14.7 129.6 14.8 129.4 14.9 129.1 15 126.2 16.5 125.8 16.7 125.8 16.7 125.7 16.7 125.7 16.7 125.6 16.7 125.6 16.7 125.6 16.6L125.5 16.7 126.6 17.6 126.7 17.6C126.7 17.5 126.7 17.5 126.6 17.5 126.6 17.5 126.6 17.4 126.7 17.4 126.7 17.4 126.7 17.4 126.8 17.3 126.8 17.3 127.3 17.1 127.3 17.1L128.9 18.5C128.9 18.5 128.7 19.1 128.7 19.1 128.7 19.2 128.7 19.2 128.7 19.2 128.6 19.3 128.6 19.3 128.6 19.3 128.5 19.2 128.5 19.2 128.5 19.2L128.4 19.3ZM122.9 12.7L124.6 13.8 123.8 15.1C123.7 15.2 123.7 15.2 123.6 15.2 123.6 15.2 123.5 15.2 123.4 15.1L123.4 15.2 124.8 16.2 124.9 16.1C124.8 16.1 124.8 16 124.8 16 124.7 15.9 124.7 15.9 124.8 15.8L126.9 12.5C126.9 12.4 126.9 12.4 127 12.4 127 12.4 127.1 12.5 127.2 12.5L127.2 12.4 125.8 11.4 125.7 11.5C125.8 11.5 125.8 11.6 125.8 11.6 125.9 11.7 125.9 11.7 125.8 11.8L125.1 12.9 123.4 11.8 124.1 10.7C124.1 10.6 124.2 10.6 124.2 10.6 124.3 10.6 124.3 10.6 124.4 10.7L124.5 10.6 123 9.7 122.9 9.8C122.9 9.8 123 9.9 123 9.9 123.1 10 123 10 123 10.1L120.9 13.4C120.9 13.5 120.9 13.5 120.8 13.5 120.8 13.5 120.7 13.5 120.6 13.4L120.6 13.5 122.1 14.4 122.1 14.3C122.1 14.3 122 14.2 122 14.2 122 14.1 122 14.1 122 14L122.9 12.7ZM115.4 6.9L114.1 10.6C114.1 10.6 114 10.7 114 10.7 113.9 10.7 113.8 10.7 113.8 10.7L113.7 10.8 115.4 11.3 115.4 11.2C115.4 11.1 115.3 11.1 115.3 11.1 115.2 11 115.2 11 115.3 10.9L115.7 9.6 117.3 10.2C117.4 10.2 117.4 10.2 117.4 10.2 117.4 10.3 117.4 10.3 117.4 10.4L117.5 10.5 118 9.2 117.8 9.1C117.8 9.2 117.8 9.3 117.7 9.3 117.7 9.3 117.7 9.3 117.6 9.3L116 8.7 116.3 7.9 118.7 8.7C118.7 8.7 118.8 8.7 118.8 8.8 118.8 8.8 118.8 8.9 118.8 9L118.9 9 119.3 7.7 119.2 7.7C119.2 7.7 119.2 7.8 119.1 7.8 119.1 7.8 119 7.8 119 7.8L115.2 6.5 115.2 6.6C115.2 6.6 115.3 6.7 115.3 6.7 115.4 6.7 115.4 6.8 115.4 6.9ZM111.4 6.6C111.5 6.7 111.7 6.7 111.8 6.8 112 6.9 112.1 7 112.2 7.1 112.3 7.3 112.4 7.4 112.4 7.6 112.4 7.7 112.4 7.9 112.4 8.1 112.4 8.3 112.3 8.4 112.2 8.6 112.1 8.7 112 8.8 111.9 8.9 111.7 9 111.6 9 111.4 9.1 111.3 9.1 111.1 9.1 110.9 9.1 110.7 9 110.6 9 110.5 8.9 110.3 8.8 110.2 8.7 110.1 8.6 110 8.4 109.9 8.3 109.9 8.1 109.9 8 109.9 7.8 109.9 7.6 109.9 7.4 110 7.3 110.1 7.1 110.2 7 110.3 6.9 110.4 6.8 110.6 6.7 110.7 6.7 110.9 6.6 111 6.6 111.2 6.6 111.4 6.6ZM111.6 5.6C111.3 5.5 111 5.5 110.7 5.5 110.4 5.6 110.1 5.7 109.8 5.8 109.6 5.9 109.3 6.1 109.1 6.4 108.9 6.7 108.8 7 108.7 7.4 108.6 7.8 108.6 8.1 108.7 8.5 108.8 8.8 109 9 109.2 9.3 109.4 9.5 109.6 9.7 109.9 9.8 110.2 9.9 110.4 10 110.7 10.1 111 10.2 111.3 10.2 111.6 10.1 111.9 10.1 112.2 10 112.5 9.9 112.7 9.8 113 9.6 113.2 9.3 113.4 9 113.5 8.7 113.6 8.3 113.7 7.9 113.6 7.6 113.6 7.2 113.5 6.9 113.3 6.7 113.1 6.4 112.9 6.2 112.7 6 112.4 5.9 112.1 5.7 111.9 5.6 111.6 5.6ZM103.1 9.2L103 7.8 104.5 5.2C104.5 5.1 104.5 5.1 104.6 5.1 104.7 5.1 104.7 5.1 104.7 5.1L104.7 4.9 102.9 4.9 102.9 5.1C102.9 5.1 103 5.1 103 5.1 103.1 5.1 103.1 5.1 103.1 5.2 103.1 5.2 103.1 5.3 103 5.4 102.9 5.6 102.4 6.6 102.4 6.6 102.3 6.5 101.6 5.6 101.5 5.5 101.5 5.4 101.4 5.3 101.4 5.3 101.4 5.2 101.4 5.2 101.5 5.2 101.5 5.1 101.6 5.1 101.6 5.1L101.6 5 99.7 5.2 99.7 5.3C99.7 5.3 99.8 5.3 99.8 5.3 99.9 5.3 99.9 5.4 99.9 5.4L101.8 7.9 101.9 9.2C101.9 9.3 101.9 9.4 101.8 9.4 101.8 9.4 101.7 9.4 101.7 9.4L101.7 9.5 103.3 9.5 103.3 9.3C103.3 9.3 103.2 9.3 103.2 9.3 103.1 9.3 103.1 9.2 103.1 9.2ZM98.4 5.3L94.6 6.1C94.6 6.1 94.5 6.1 94.5 6.1 94.4 6.1 94.4 6 94.4 5.9L94.3 5.9 94.6 7.4 94.7 7.4C94.7 7.3 94.7 7.2 94.7 7.2 94.7 7.2 94.8 7.1 94.8 7.1L96.1 6.9 96.7 10C96.7 10 96.7 10.1 96.7 10.1 96.7 10.2 96.6 10.2 96.6 10.2L96.6 10.3 98.2 10 98.2 9.9C98.2 9.9 98.1 9.9 98 9.8 98 9.8 98 9.8 98 9.7L97.3 6.6 98.6 6.4C98.7 6.4 98.7 6.4 98.8 6.4 98.8 6.4 98.8 6.5 98.8 6.6L99 6.5 98.7 5.1 98.5 5.1C98.6 5.2 98.6 5.2 98.5 5.3 98.5 5.3 98.5 5.3 98.4 5.3ZM87.4 12L87.6 13.4 87.7 13.4C87.7 13.3 87.7 13.3 87.8 13.3 87.8 13.2 87.8 13.2 87.8 13.2 87.9 13.2 87.9 13.2 88.1 13.1 88.2 13.1 88.4 13.1 88.6 13 88.7 13 89 13 89.2 12.9 89.4 12.8 89.6 12.7 89.8 12.6 90.1 12.5 90.4 12.3 90.6 12.2 90.8 12 91 11.8 91 11.6 91.1 11.4 91.2 11.2 91.2 11 91.2 10.8 91.1 10.6 91.1 10.5 90.9 10.2 90.8 10 90.6 9.9 90.4 9.8 90.1 9.8 89.9 9.8 89.7 9.8 89.4 9.9 89.1 9.9 88.9 10 88.7 10.1 88.4 10.1 88.2 10.2 88 10.3 87.9 10.3 87.7 10.3 87.6 10.2 87.6 10.1 87.5 10 87.5 9.9 87.6 9.8 87.6 9.7 87.7 9.6 87.8 9.6 87.9 9.5 88 9.4 88.1 9.4 88.2 9.3 88.3 9.3 88.3 9.3 88.5 9.2 88.6 9.1 88.8 9.1 88.9 9.1 89.1 9.1 89.2 9 89.3 9 89.4 9 89.5 9 89.6 9 89.6 9.1 89.7 9.1 89.7 9.1 89.7 9.1 89.7 9.1 89.7 9.2 89.7 9.2 89.7 9.2L89.8 9.2 89.8 7.8 89.7 7.8C89.7 7.8 89.7 7.9 89.7 7.9 89.6 7.9 89.6 8 89.6 8 89.5 8 89.4 8 89.3 8.1 89.2 8.1 89.1 8.1 88.9 8.1 88.7 8.2 88.6 8.2 88.4 8.3 88.2 8.3 88 8.4 87.8 8.5 87.4 8.7 87.2 8.8 87 9.1 86.8 9.3 86.6 9.5 86.5 9.7 86.4 9.9 86.4 10.1 86.4 10.3 86.4 10.5 86.5 10.6 86.5 10.8 86.7 11 86.8 11.2 87 11.3 87.2 11.4 87.4 11.4 87.7 11.4 87.9 11.4 88.2 11.3 88.4 11.2 88.7 11.2 88.9 11.1 89.1 11 89.4 11 89.5 10.9 89.7 10.9 89.9 10.9 90 11 90 11.1 90.1 11.2 90.1 11.3 90 11.3 90 11.4 89.9 11.5 89.9 11.6 89.8 11.6 89.7 11.7 89.6 11.7 89.6 11.8 89.5 11.8 89.4 11.8 89.3 11.9 89.1 12 88.9 12 88.7 12.1 88.5 12.2 88.3 12.2 88.1 12.2 87.9 12.2 87.8 12.2 87.7 12.2 87.6 12.2 87.6 12.1 87.5 12.1 87.5 12.1 87.5 12.1 87.5 12 87.5 12 87.5 12L87.4 12ZM82.8 13.8L82.2 12.9 83.2 12.2C83.4 12 83.6 11.9 83.8 12 83.9 12 84 12.1 84.1 12.2 84.2 12.4 84.2 12.5 84.2 12.7 84.1 12.8 84 12.9 83.9 13L82.8 13.8ZM80.9 13.1L83.1 16.3C83.1 16.4 83.1 16.4 83.1 16.5 83.1 16.5 83 16.5 83 16.6L83.1 16.7 84.4 15.7 84.3 15.6C84.2 15.7 84.2 15.7 84.1 15.7 84.1 15.7 84 15.7 84 15.6L83.2 14.4 84 13.9C84 14 85 14.5 85.1 14.6 85.3 14.7 85.3 14.7 85.4 14.8 85.4 14.8 85.4 14.8 85.3 14.9 85.3 14.9 85.3 15 85.2 15L85.3 15.1 87 14 86.9 13.9C86.8 14 86.8 14 86.7 14 86.6 14 86.6 14 86.5 14L84.9 13.2C85.1 13 85.2 12.7 85.3 12.4 85.3 12.1 85.2 11.8 85 11.5 84.8 11.1 84.5 10.9 84.1 10.9 83.7 10.8 83.4 10.9 83 11.2L80.5 12.9 80.6 13C80.7 13 80.7 13 80.7 13 80.8 13 80.8 13 80.9 13.1ZM81.2 17L79.3 18.8 78.6 18.1 79.9 16.9C79.9 16.8 79.9 16.8 80 16.8 80 16.8 80.1 16.9 80.2 16.9L80.3 16.9 79.3 15.9 79.3 16C79.3 16 79.4 16.1 79.3 16.1 79.3 16.2 79.3 16.2 79.3 16.2L78 17.4 77.5 16.8 79.4 15C79.5 14.9 79.5 14.9 79.6 14.9 79.6 14.9 79.7 15 79.7 15L79.8 15 78.9 14 78.8 14C78.9 14.1 78.9 14.2 78.9 14.2 78.9 14.3 78.9 14.3 78.8 14.3L75.8 17.2 75.8 17.3C75.9 17.3 76 17.2 76 17.2 76.1 17.2 76.1 17.2 76.2 17.3L78.8 20.1C78.9 20.2 78.9 20.2 78.8 20.3 78.8 20.3 78.8 20.4 78.7 20.4L78.8 20.5 81.8 17.6C81.9 17.6 81.9 17.6 81.9 17.5 82 17.5 82 17.5 82.1 17.6L82.2 17.5 81.3 16.6 81.2 16.7C81.3 16.8 81.3 16.9 81.2 17ZM72 21.9L72.1 22C72.1 21.9 72.1 21.9 72.1 21.9 72.1 21.9 72.2 21.9 72.2 21.9 72.2 21.9 72.4 21.9 72.6 21.9 72.8 22 75.7 23.1 75.9 23.2 76 23.2 76.2 23.3 76.2 23.3 76.2 23.3 76.2 23.4 76.2 23.4 76.2 23.5 76.2 23.5 76.2 23.6L76.3 23.6 77.5 22.1 77.4 22C77.4 22.1 77.3 22.1 77.3 22.1 77.2 22.1 77.2 22.1 77.1 22.1 77.1 22.1 77 22 76.9 21.8 76.8 21.6 75 18.6 74.9 18.5 74.9 18.5 74.9 18.4 74.9 18.4 74.9 18.4 74.9 18.3 74.9 18.3L74.8 18.2 73.9 19.4 74 19.5C74 19.4 74 19.4 74 19.4 74.1 19.3 74.1 19.3 74.2 19.3 74.2 19.4 74.2 19.5 74.4 19.6 74.5 19.8 75.5 21.5 75.6 21.7L75.6 21.7C75.6 21.7 73.3 20.9 73.2 20.9 73.1 20.8 73 20.8 73 20.8 73 20.8 73 20.7 73 20.7 73 20.6 73.1 20.6 73.1 20.5L73 20.5 72 21.9ZM73.2 28L69.6 26.4C69.6 26.4 69.5 26.4 69.5 26.3 69.5 26.3 69.5 26.2 69.6 26.1L69.5 26.1 68.7 27.5 68.8 27.6C68.9 27.5 68.9 27.5 68.9 27.4 69 27.4 69 27.4 69.1 27.4L71 28.3C70.7 28.3 70.4 28.4 70.1 28.5 69.8 28.6 69.5 28.7 69.3 28.7 69.1 28.8 68.9 28.9 68.7 28.9 68.5 29 68.5 29 68.5 29 68.4 29 68.3 28.9 68.3 28.8 68.3 28.8 68.3 28.7 68.3 28.7L68.2 28.7 67.4 30.7 67.5 30.8C67.6 30.7 67.6 30.7 67.6 30.6 67.7 30.6 67.7 30.6 67.8 30.6L71.4 32.2C71.4 32.2 71.5 32.3 71.5 32.3 71.5 32.4 71.5 32.4 71.4 32.5L71.6 32.5 72.1 31 72 31C72 31.1 71.9 31.1 71.9 31.1 71.9 31.2 71.8 31.2 71.7 31.1L69.3 30.1 69.3 30C69.7 29.9 70.1 29.8 70.5 29.7 70.9 29.6 71.2 29.5 71.5 29.4 71.8 29.3 72.1 29.2 72.3 29.1 72.5 29.1 72.6 29.1 72.7 29.1 72.8 29.1 72.8 29.2 72.8 29.2 72.7 29.3 72.7 29.4 72.7 29.4L72.8 29.4 73.6 27.9 73.5 27.9C73.4 27.9 73.4 28 73.4 28 73.3 28.1 73.3 28.1 73.2 28ZM66 37.1L68.1 37.6C68.4 37.7 68.6 37.7 68.9 37.7 69.1 37.7 69.4 37.6 69.6 37.5 69.8 37.4 70 37.2 70.2 36.9 70.3 36.7 70.5 36.4 70.6 36 70.6 35.6 70.7 35.2 70.6 34.9 70.6 34.6 70.5 34.4 70.4 34.2 70.3 34 70.1 33.8 69.9 33.7 69.7 33.6 69.4 33.5 69.1 33.4L67 32.9C67 32.8 66.9 32.8 66.9 32.8 66.9 32.7 66.9 32.6 66.9 32.6L66.8 32.5 66.3 34.2 66.4 34.2C66.5 34.2 66.5 34.1 66.5 34.1 66.5 34.1 66.6 34.1 66.7 34.1L69.1 34.7C69.3 34.7 69.5 34.8 69.6 35 69.6 35.2 69.6 35.5 69.6 35.7 69.5 36 69.4 36.2 69.2 36.4 69.1 36.5 68.9 36.5 68.6 36.5L66.2 35.9C66.1 35.9 66.1 35.8 66.1 35.8 66.1 35.8 66.1 35.7 66.1 35.7L66 35.7 65.6 37.3 65.8 37.3C65.8 37.3 65.8 37.2 65.8 37.2 65.9 37.1 65.9 37.1 66 37.1ZM104.2 86.2C127.4 86.2 146.1 67.4 146.1 44.2 146.1 21.1 127.4 2.2 104.2 2.2 81.1 2.2 62.3 21.1 62.3 44.2 62.3 67.4 81.1 86.2 104.2 86.2ZM104.2 0.7C128.2 0.7 147.7 20.2 147.7 44.2 147.7 68.2 128.2 87.7 104.2 87.7 80.3 87.7 60.8 68.2 60.8 44.2 60.8 20.2 80.3 0.7 104.2 0.7ZM136.4 44.2C136.4 62 122 76.4 104.3 76.4 86.5 76.4 72.2 62 72.2 44.2 72.2 26.5 86.5 12.1 104.3 12.1 122 12.1 136.4 26.5 136.4 44.2ZM132.1 85.6L131.9 84C131.9 83.8 131.9 83.6 131.9 83.4L131.9 83.4C131.8 83.6 131.8 83.9 131.7 84L131 85.6 130.8 85.6 130.1 84C130 83.8 130 83.6 129.9 83.4L129.9 83.4C129.9 83.6 129.9 83.8 129.9 84L129.7 85.6 129.5 85.6 129.7 83.2 130 83.2 130.7 84.8C130.8 84.9 130.8 85.1 130.9 85.3L130.9 85.3C131 85.1 131 84.9 131.1 84.8L131.8 83.2 132.1 83.2 132.3 85.6 132.1 85.6ZM129.4 83.2L129.4 83.4 128.5 83.4 128.5 85.6 128.3 85.6 128.3 83.4 127.3 83.4 127.3 83.2 129.4 83.2Z" fill="#D52B1E"/><rect x="51.9" y="121.2" width="101.7" height="1.1" fill="#D52B1E"/><path d="M209.2 104.9L209.4 104.9C209.7 104.9 209.9 104.8 209.9 104.5 209.9 104.3 209.8 104.1 209.4 104.1 209.3 104.1 209.2 104.1 209.2 104.2L209.2 104.9ZM209.2 106L208.9 106 208.9 104C209.1 104 209.2 103.9 209.4 103.9 209.7 103.9 209.9 104 210 104.1 210.1 104.2 210.2 104.3 210.2 104.5 210.2 104.8 210 104.9 209.8 105L209.8 105C210 105 210.1 105.2 210.2 105.5 210.2 105.8 210.3 105.9 210.3 106L210 106C210 105.9 209.9 105.7 209.9 105.5 209.8 105.2 209.7 105.1 209.4 105.1L209.2 105.1 209.2 106ZM209.5 103.4C208.7 103.4 208 104.1 208 104.9 208 105.8 208.7 106.5 209.5 106.5 210.4 106.5 211 105.8 211 104.9 211 104.1 210.4 103.4 209.5 103.4L209.5 103.4ZM209.5 103.1C210.5 103.1 211.3 103.9 211.3 104.9 211.3 106 210.5 106.7 209.5 106.7 208.5 106.7 207.7 106 207.7 104.9 207.7 103.9 208.5 103.1 209.5 103.1L209.5 103.1ZM1.5 106C1.5 103.3 1.5 102.8 1.5 102.3 1.4 101.7 1.3 101.4 0.7 101.3 0.6 101.3 0.3 101.2 0.1 101.2 0.1 101.2 0 101.2 0 101.1 0 101 0.1 101 0.3 101 1.1 101 2.1 101 2.3 101 2.4 101 3.5 101 4 101 4.2 101 4.3 101 4.3 101.1 4.3 101.2 4.2 101.2 4.2 101.2 4 101.2 3.9 101.3 3.7 101.3 3.2 101.4 3.1 101.7 3.1 102.3 3 102.8 3 103.3 3 106L3 108.5C3 111 3.6 112.1 4.3 112.8 5.2 113.6 6 113.8 7 113.8 8 113.8 9.1 113.2 9.7 112.5 10.5 111.5 10.7 110 10.7 108.2L10.7 106C10.7 103.3 10.7 102.8 10.7 102.3 10.7 101.7 10.5 101.4 9.9 101.3 9.8 101.3 9.5 101.2 9.3 101.2 9.3 101.2 9.2 101.2 9.2 101.1 9.2 101 9.3 101 9.5 101 10.3 101 11.2 101 11.3 101 11.5 101 12.3 101 12.8 101 13 101 13.1 101 13.1 101.1 13.1 101.2 13 101.2 12.9 101.2 12.8 101.2 12.7 101.3 12.5 101.3 12 101.4 11.9 101.7 11.9 102.3 11.8 102.8 11.8 103.3 11.8 106L11.8 107.9C11.8 109.8 11.6 111.9 10.2 113.1 9 114.2 7.7 114.4 6.6 114.4 6 114.4 4.3 114.3 3 113.2 2.2 112.4 1.5 111.1 1.5 108.6L1.5 106ZM16.2 112.1C16.2 113.4 16.3 113.7 16.8 113.8 17 113.9 17.4 113.9 17.5 113.9 17.6 113.9 17.6 114 17.6 114.1 17.6 114.1 17.5 114.2 17.4 114.2 16.5 114.2 15.9 114.1 15.7 114.1 15.6 114.1 15 114.2 14.3 114.2 14.1 114.2 14 114.2 14 114.1 14 114 14.1 113.9 14.1 113.9 14.3 113.9 14.5 113.9 14.8 113.8 15.2 113.7 15.2 113.3 15.2 112L15.2 103.5C15.2 102.9 15.3 102.8 15.4 102.8 15.6 102.8 15.9 103 16 103.2 16.3 103.4 18.5 105.8 20.9 108.3 22.4 109.8 24 111.6 24.5 112.1L24.3 104.7C24.3 103.7 24.2 103.4 23.8 103.3 23.5 103.2 23.1 103.2 23 103.2 22.9 103.2 22.9 103.1 22.9 103.1 22.9 103 23 103 23.2 103 23.9 103 24.6 103 24.8 103 25 103 25.5 103 26.1 103 26.2 103 26.4 103 26.4 103.1 26.4 103.1 26.3 103.2 26.2 103.2 26.1 103.2 26 103.2 25.8 103.2 25.3 103.3 25.3 103.6 25.3 104.5L25.3 113.2C25.3 114.2 25.2 114.3 25.1 114.3 25 114.3 24.8 114.2 24 113.4 23.8 113.2 21.6 111.1 20 109.4 18.2 107.5 16.5 105.7 16 105.2L16.2 112.1ZM31.3 109.9C31.3 111.3 31.3 112.5 31.4 113.1 31.5 113.5 31.5 113.8 32 113.9 32.2 113.9 32.5 113.9 32.7 113.9 32.7 113.9 32.8 114 32.8 114.1 32.8 114.1 32.7 114.2 32.5 114.2 31.7 114.2 30.7 114.1 30.6 114.1 30.5 114.1 29.6 114.2 29.1 114.2 28.9 114.2 28.9 114.1 28.9 114.1 28.9 114 28.9 113.9 29 113.9 29.1 113.9 29.3 113.9 29.5 113.9 29.7 113.8 29.8 113.5 29.9 113.1 29.9 112.5 29.9 111.3 29.9 109.9L29.9 107.2C29.9 104.9 29.9 104.5 29.9 104.1 29.9 103.6 29.7 103.3 29.4 103.3 29.2 103.2 29.1 103.2 28.9 103.2 28.9 103.2 28.8 103.1 28.8 103.1 28.8 103 28.9 103 29.1 103 29.6 103 30.5 103 30.6 103 30.7 103 31.7 103 32.2 103 32.3 103 32.4 103 32.4 103.1 32.4 103.1 32.3 103.2 32.3 103.2 32.2 103.2 32.1 103.2 31.9 103.2 31.5 103.3 31.4 103.5 31.4 104.1 31.3 104.5 31.3 104.9 31.3 107.2L31.3 109.9ZM40.7 112.2C41.6 110.2 43.6 105.2 43.9 104.1 44 103.9 44 103.7 44 103.6 44 103.4 44 103.3 43.8 103.3 43.6 103.2 43.5 103.2 43.3 103.2 43.2 103.2 43.1 103.2 43.1 103.1 43.1 103 43.2 103 43.5 103 44.1 103 44.8 103 45 103 45.1 103 45.7 103 46.2 103 46.3 103 46.4 103 46.4 103.1 46.4 103.1 46.4 103.2 46.2 103.2 46.1 103.2 45.8 103.2 45.5 103.4 45.3 103.5 45.1 103.7 44.7 104.7 44.5 105.2 43.7 106.9 42.9 108.7 42 110.9 41.3 112.5 41 113.2 40.6 114.1 40.5 114.4 40.3 114.4 40.1 114.4 40 114.2 39.7 113.5L36 104.4C35.6 103.5 35.4 103.4 34.9 103.3 34.7 103.2 34.4 103.2 34.3 103.2 34.2 103.2 34.2 103.1 34.2 103.1 34.2 103 34.4 103 34.6 103 35.3 103 36.2 103 36.4 103 36.5 103 37.2 103 37.8 103 38.1 103 38.2 103 38.2 103.1 38.2 103.1 38.2 103.2 38.1 103.2 37.9 103.2 37.7 103.2 37.5 103.3 37.4 103.3 37.4 103.4 37.4 103.5 37.4 103.7 37.5 104.2 37.8 104.8L40.7 112.2ZM49.1 107.2C49.1 104.9 49.1 104.5 49 104.1 49 103.6 48.9 103.3 48.4 103.2 48.3 103.2 48 103.2 47.9 103.2 47.8 103.2 47.8 103.1 47.8 103.1 47.8 103 47.8 103 48 103 48.7 103 49.7 103 49.8 103 49.9 103 53.1 103 53.4 103 53.7 103 54 102.9 54.1 102.9 54.2 102.9 54.3 102.8 54.4 102.8 54.4 102.8 54.4 102.9 54.4 103 54.4 103.1 54.3 103.3 54.3 103.7 54.3 103.8 54.3 104.5 54.2 104.7 54.2 104.7 54.1 104.8 54.1 104.8 54 104.8 54 104.7 54 104.6 54 104.5 53.9 104.3 53.9 104.1 53.8 103.8 53.6 103.7 52.8 103.6 52.5 103.6 50.7 103.6 50.6 103.6 50.5 103.6 50.5 103.6 50.5 103.7L50.5 107.8C50.5 107.9 50.5 107.9 50.6 107.9 50.7 107.9 52.8 107.9 53.1 107.9 53.5 107.9 53.7 107.8 53.9 107.7 54 107.6 54 107.5 54.1 107.5 54.1 107.5 54.2 107.5 54.2 107.6 54.2 107.7 54.1 107.9 54.1 108.4 54 108.7 54 109.3 54 109.4 54 109.5 54 109.7 53.8 109.7 53.8 109.7 53.7 109.6 53.7 109.5 53.7 109.4 53.7 109.2 53.7 109 53.6 108.8 53.5 108.7 52.9 108.6 52.5 108.5 50.8 108.5 50.6 108.5 50.5 108.5 50.5 108.6 50.5 108.6L50.5 109.9C50.5 110.4 50.4 112.1 50.5 112.4 50.5 113.4 50.8 113.6 52.3 113.6 52.7 113.6 53.4 113.6 53.8 113.4 54.2 113.2 54.4 113 54.5 112.4 54.6 112.2 54.6 112.2 54.7 112.2 54.8 112.2 54.8 112.3 54.8 112.4 54.8 112.5 54.7 113.5 54.6 113.8 54.5 114.2 54.3 114.2 53.7 114.2 52.6 114.2 51.7 114.2 51.1 114.2 50.4 114.1 50 114.1 49.8 114.1 49.8 114.1 49.5 114.1 49.1 114.1 48.8 114.2 48.5 114.2 48.2 114.2 48.1 114.2 48 114.1 48 114.1 48 114 48 113.9 48.1 113.9 48.3 113.9 48.4 113.9 48.6 113.9 48.9 113.8 48.9 113.5 49 113.1 49.1 112.5 49.1 111.3 49.1 109.9L49.1 107.2ZM59.4 108.5C59.4 108.6 59.4 108.6 59.5 108.7 59.7 108.8 60.5 108.9 61.2 108.9 61.6 108.9 62 108.9 62.4 108.7 62.9 108.3 63.3 107.5 63.3 106.4 63.3 104.5 62.3 103.5 60.6 103.5 60.2 103.5 59.7 103.5 59.5 103.6 59.5 103.6 59.4 103.7 59.4 103.7L59.4 108.5ZM58.1 107.2C58.1 104.9 58.1 104.5 58.1 104.1 58 103.6 57.9 103.3 57.4 103.2 57.3 103.2 57 103.2 56.9 103.2 56.8 103.2 56.8 103.1 56.8 103.1 56.8 103 56.8 103 57 103 57.7 103 58.7 103 58.8 103 59 103 60.3 103 60.8 103 61.7 103 62.8 103 63.6 103.6 64 103.9 64.7 104.6 64.7 105.6 64.7 106.7 64.2 107.8 62.8 109 64 110.6 65.1 111.9 66 112.8 66.8 113.7 67.3 113.8 67.7 113.9 68 113.9 68.2 113.9 68.3 113.9 68.3 113.9 68.4 114 68.4 114.1 68.4 114.1 68.3 114.2 68 114.2L67.1 114.2C66.2 114.2 65.8 114.1 65.4 113.9 64.8 113.5 64.2 112.8 63.3 111.7 62.7 110.9 62 109.9 61.7 109.5 61.6 109.5 61.6 109.4 61.5 109.4L59.5 109.4C59.4 109.4 59.4 109.4 59.4 109.5L59.4 109.9C59.4 111.3 59.4 112.5 59.5 113.1 59.5 113.5 59.6 113.8 60.1 113.9 60.3 113.9 60.6 113.9 60.8 113.9 60.9 113.9 60.9 114 60.9 114.1 60.9 114.1 60.8 114.2 60.6 114.2 59.8 114.2 58.8 114.1 58.8 114.1 58.7 114.1 57.7 114.2 57.2 114.2 57.1 114.2 57 114.1 57 114.1 57 114 57 113.9 57.1 113.9 57.3 113.9 57.5 113.9 57.6 113.9 57.9 113.8 57.9 113.5 58 113.1 58.1 112.5 58.1 111.3 58.1 109.9L58.1 107.2ZM69 114C68.7 113.9 68.7 113.8 68.7 113.4 68.7 112.7 68.8 112.1 68.8 111.8 68.8 111.7 68.8 111.6 68.9 111.6 69 111.6 69.1 111.6 69.1 111.8 69.1 111.9 69.1 112.1 69.1 112.3 69.4 113.4 70.5 113.8 71.5 113.8 73.1 113.8 73.8 112.9 73.8 111.8 73.8 110.7 73.3 110.2 71.9 109.2L71.2 108.7C69.6 107.5 69 106.6 69 105.5 69 103.8 70.4 102.7 72.4 102.7 73 102.7 73.6 102.8 74 102.9 74.3 103 74.4 103 74.5 103 74.7 103 74.7 103 74.7 103.1 74.7 103.2 74.6 103.6 74.6 104.7 74.6 104.9 74.6 105 74.5 105 74.4 105 74.4 104.9 74.4 104.8 74.4 104.6 74.2 104.2 74.1 104.1 74 103.9 73.5 103.3 72.2 103.3 71 103.3 70.1 103.9 70.1 104.9 70.1 105.9 70.6 106.4 72.1 107.4L72.5 107.7C74.4 109 75.1 110 75.1 111.3 75.1 112.2 74.7 113.1 73.6 113.8 73 114.3 72 114.4 71.2 114.4 70.5 114.4 69.6 114.3 69 114ZM80 109.9C80 111.3 80 112.5 80 113.1 80.1 113.5 80.1 113.8 80.6 113.9 80.8 113.9 81.1 113.9 81.3 113.9 81.4 113.9 81.4 114 81.4 114.1 81.4 114.1 81.3 114.2 81.2 114.2 80.3 114.2 79.3 114.1 79.2 114.1 79.2 114.1 78.2 114.2 77.7 114.2 77.6 114.2 77.5 114.1 77.5 114.1 77.5 114 77.5 113.9 77.6 113.9 77.7 113.9 77.9 113.9 78.1 113.9 78.4 113.8 78.4 113.5 78.5 113.1 78.5 112.5 78.6 111.3 78.6 109.9L78.6 107.2C78.6 104.9 78.6 104.5 78.5 104.1 78.5 103.6 78.4 103.3 78 103.3 77.9 103.2 77.7 103.2 77.6 103.2 77.5 103.2 77.4 103.1 77.4 103.1 77.4 103 77.5 103 77.7 103 78.2 103 79.2 103 79.2 103 79.3 103 80.3 103 80.8 103 80.9 103 81 103 81 103.1 81 103.1 80.9 103.2 80.9 103.2 80.8 103.2 80.7 103.2 80.5 103.2 80.1 103.3 80 103.5 80 104.1 80 104.5 80 104.9 80 107.2L80 109.9ZM88.8 109.9C88.8 111.3 88.8 112.5 88.9 113.1 88.9 113.5 89 113.8 89.5 113.9 89.7 113.9 90 113.9 90.2 113.9 90.3 113.9 90.3 114 90.3 114.1 90.3 114.1 90.2 114.2 90 114.2 89.2 114.2 88.2 114.1 88.1 114.1 88.1 114.1 87 114.2 86.6 114.2 86.4 114.2 86.3 114.1 86.3 114.1 86.3 114 86.4 113.9 86.4 113.9 86.6 113.9 86.8 113.9 86.9 113.9 87.2 113.8 87.3 113.5 87.3 113.1 87.4 112.5 87.4 111.3 87.4 109.9L87.4 103.6 85.2 103.7C84.2 103.7 83.9 103.8 83.7 104.1 83.5 104.4 83.5 104.5 83.4 104.6 83.4 104.7 83.3 104.8 83.2 104.8 83.2 104.8 83.1 104.7 83.1 104.6 83.1 104.5 83.5 103.2 83.5 103 83.5 102.9 83.6 102.8 83.6 102.8 83.7 102.8 83.9 102.9 84.3 102.9 84.7 103 85.3 103 85.5 103L91.3 103C91.8 103 92.2 103 92.4 102.9 92.6 102.9 92.8 102.9 92.8 102.9 92.9 102.9 92.9 102.9 92.9 103 92.9 103.5 92.9 104.5 92.9 104.7 92.9 104.8 92.8 104.9 92.7 104.9 92.6 104.9 92.6 104.9 92.6 104.7L92.6 104.5C92.5 104 92.2 103.7 90.7 103.7L88.8 103.6 88.8 109.9ZM99.1 110.3C99.1 109.5 99 109.2 98.8 108.8 98.7 108.6 96.6 105.3 96.1 104.5 95.7 103.9 95.4 103.6 95.1 103.4 94.8 103.3 94.5 103.2 94.4 103.2 94.3 103.2 94.3 103.1 94.3 103.1 94.3 103 94.3 103 94.5 103 94.8 103 95.9 103 96 103 96.1 103 96.7 103 97.3 103 97.5 103 97.5 103 97.5 103.1 97.5 103.1 97.4 103.2 97.3 103.2 97.1 103.3 97.1 103.3 97.1 103.5 97.1 103.7 97.2 103.8 97.3 104L100.1 108.7C100.4 108 102.3 104.9 102.6 104.4 102.8 104 102.9 103.8 102.9 103.6 102.9 103.4 102.8 103.3 102.6 103.2 102.5 103.2 102.4 103.1 102.4 103 102.4 103 102.5 103 102.6 103 103 103 103.6 103 103.7 103 103.8 103 104.9 103 105.2 103 105.3 103 105.4 103 105.4 103 105.4 103.1 105.3 103.2 105.2 103.2 105 103.2 104.7 103.3 104.5 103.4 104.2 103.6 104 103.7 103.7 104.1 103.2 104.7 101 108.2 100.7 108.8 100.5 109.4 100.5 109.8 100.5 110.3L100.5 111.6C100.5 111.8 100.5 112.5 100.6 113.1 100.6 113.5 100.7 113.8 101.2 113.9 101.4 113.9 101.7 113.9 101.9 113.9 102 113.9 102 114 102 114.1 102 114.1 101.9 114.2 101.8 114.2 100.9 114.2 99.9 114.1 99.8 114.1 99.7 114.1 98.8 114.2 98.3 114.2 98.1 114.2 98.1 114.1 98.1 114.1 98.1 114 98.1 113.9 98.2 113.9 98.3 113.9 98.5 113.9 98.6 113.9 99 113.8 99.1 113.5 99.1 113.1 99.1 112.5 99.1 111.8 99.1 111.6L99.1 110.3ZM112.5 111.3C112.5 112.8 113.1 114 114.7 113.9 117.1 113.9 118 110.6 118 108.7 118 107.4 117.3 106.1 115.8 106.1 113.4 106.1 112.5 109.4 112.5 111.3ZM111.1 111.1C111.1 107.8 113.2 105.6 115.7 105.6 118.1 105.6 119.4 107 119.4 109.2 119.4 111.8 117.6 114.5 114.5 114.5 112.3 114.5 111.1 112.9 111.1 111.1ZM126.6 106.2L126.5 106.8 124.3 106.8 123.5 111C123.3 112.3 123 113.4 122.4 114.5 121.6 116.4 120.5 117.7 120.4 117.7 120 117.5 120 117.4 120.2 117.1 121.2 116 121.7 114.5 121.9 113.1L123 106.8 121.3 106.8 121.4 106.2 123.1 106.2C123.7 102.7 125.5 100.6 126.6 100.6 126.9 100.6 127.2 100.8 127.2 101.4 127.2 102 126.9 102.4 126.7 102.4 126.3 102.4 126.5 101.8 125.9 101.8 124.9 101.8 124.8 103.7 124.4 106.2L126.6 106.2ZM146.4 109.1C146.4 110.8 146.4 112.2 146.5 112.9 146.5 113.4 146.6 113.8 147.2 113.9 147.4 113.9 147.8 113.9 147.9 113.9 148.1 113.9 148.1 114 148.1 114 148.1 114.1 148 114.2 147.8 114.2 146.8 114.2 145.7 114.1 145.7 114.1 145.6 114.1 144.5 114.2 144 114.2 143.8 114.2 143.7 114.1 143.7 114 143.7 114 143.7 113.9 143.8 113.9 144 113.9 144.2 113.9 144.3 113.9 144.7 113.8 144.8 113.4 144.8 112.9 144.9 112.2 144.9 110.8 144.9 109.1L144.9 107.3C144.9 107.2 144.9 107.2 144.8 107.2L137.4 107.2C137.4 107.2 137.3 107.2 137.3 107.3L137.3 109.1C137.3 110.8 137.3 112.2 137.4 112.9 137.5 113.4 137.6 113.8 138.1 113.9 138.3 113.9 138.7 113.9 138.9 113.9 139 113.9 139 114 139 114 139 114.1 138.9 114.2 138.7 114.2 137.8 114.2 136.7 114.1 136.6 114.1 136.5 114.1 135.4 114.2 134.9 114.2 134.7 114.2 134.6 114.1 134.6 114 134.6 114 134.6 113.9 134.7 113.9 134.9 113.9 135.1 113.9 135.3 113.9 135.6 113.8 135.7 113.4 135.8 112.9 135.9 112.2 135.9 110.8 135.9 109.1L135.9 106C135.9 103.3 135.9 102.8 135.8 102.3 135.8 101.7 135.7 101.4 135.1 101.3 134.9 101.3 134.6 101.2 134.5 101.2 134.4 101.2 134.3 101.2 134.3 101.1 134.3 101 134.4 101 134.6 101 135.4 101 136.5 101 136.6 101 136.7 101 137.8 101 138.3 101 138.5 101 138.6 101 138.6 101.1 138.6 101.2 138.5 101.2 138.4 101.2 138.3 101.2 138.2 101.3 138 101.3 137.5 101.4 137.4 101.7 137.4 102.3 137.3 102.8 137.3 103.3 137.3 106L137.3 106.4C137.3 106.5 137.4 106.5 137.4 106.5L144.8 106.5C144.9 106.5 144.9 106.5 144.9 106.4L144.9 106C144.9 103.3 144.9 102.8 144.9 102.3 144.9 101.7 144.7 101.4 144.1 101.3 144 101.3 143.7 101.2 143.6 101.2 143.5 101.2 143.4 101.2 143.4 101.1 143.4 101 143.5 101 143.7 101 144.5 101 145.6 101 145.7 101 145.7 101 146.8 101 147.4 101 147.6 101 147.6 101 147.6 101.1 147.6 101.2 147.6 101.2 147.5 101.2 147.4 101.2 147.3 101.3 147.1 101.3 146.6 101.4 146.5 101.7 146.4 102.3 146.4 102.8 146.4 103.3 146.4 106L146.4 109.1ZM156.4 109.4C156.5 109.4 156.5 109.4 156.5 109.3L155 105.3C154.9 105 154.8 105 154.7 105.3L153.3 109.3C153.3 109.4 153.3 109.4 153.3 109.4L156.4 109.4ZM154.7 103.3C154.9 102.8 155 102.7 155.1 102.7 155.3 102.7 155.3 102.9 155.5 103.2 155.7 103.8 158.2 110 159.1 112.2 159.7 113.5 160.1 113.7 160.4 113.8 160.7 113.9 160.9 113.9 161.1 113.9 161.1 113.9 161.3 114 161.3 114.1 161.3 114.1 161.1 114.2 160.9 114.2 160.7 114.2 159.5 114.2 158.5 114.1 158.2 114.1 157.9 114.1 157.9 114 157.9 114 158 114 158 113.9 158.1 113.9 158.3 113.8 158.2 113.5L156.8 110.1C156.8 110.1 156.8 110 156.7 110L153.1 110C153.1 110 153 110.1 153 110.2L152.1 112.5C152 112.9 151.9 113.3 151.9 113.5 151.9 113.8 152.1 113.9 152.4 113.9L152.5 113.9C152.7 113.9 152.7 114 152.7 114.1 152.7 114.1 152.6 114.2 152.5 114.2 152.1 114.2 151.3 114.1 151.1 114.1 150.9 114.1 150.2 114.2 149.5 114.2 149.3 114.2 149.2 114.1 149.2 114.1 149.2 114 149.3 113.9 149.4 113.9 149.5 113.9 149.7 113.9 149.8 113.9 150.5 113.8 150.8 113.3 151.1 112.5L154.7 103.3ZM172.5 112L172.6 112C173 110.8 174.4 106.5 174.9 104.6 175.1 104 175.1 103.8 175.1 103.6 175.1 103.4 175 103.2 174.3 103.2 174.2 103.2 174.1 103.1 174.1 103.1 174.1 103 174.2 103 174.4 103 175.2 103 175.8 103 176 103 176.1 103 176.7 103 177.2 103 177.3 103 177.4 103 177.4 103 177.4 103.1 177.4 103.2 177.3 103.2 177.2 103.2 176.9 103.2 176.7 103.3 176.3 103.4 176 104 175.7 104.8 175.1 106.7 173.5 111.4 172.9 113.1 172.5 114.2 172.4 114.4 172.3 114.4 172.1 114.4 172 114.2 171.8 113.6L168.8 105.5C168.2 106.8 166.2 112.2 165.6 113.6 165.3 114.2 165.2 114.4 165.1 114.4 164.9 114.4 164.8 114.2 164.5 113.2L161.8 104.4C161.5 103.6 161.4 103.4 161 103.3 160.7 103.2 160.4 103.2 160.3 103.2 160.2 103.2 160.1 103.2 160.1 103.1 160.1 103 160.2 103 160.4 103 161.2 103 162 103 162.2 103 162.3 103 163 103 163.8 103 164 103 164.1 103 164.1 103.1 164.1 103.2 164 103.2 163.9 103.2 163.8 103.2 163.5 103.2 163.4 103.3 163.3 103.3 163.2 103.4 163.2 103.6 163.2 103.8 163.3 104.3 163.4 105 163.7 105.9 165.3 111.4 165.5 112L165.5 112 168.7 103.7C168.9 103.1 169 103 169.1 103 169.2 103 169.3 103.2 169.5 103.7L172.5 112ZM183.3 109.4C183.4 109.4 183.4 109.4 183.4 109.3L181.9 105.3C181.8 105 181.7 105 181.6 105.3L180.2 109.3C180.2 109.4 180.2 109.4 180.2 109.4L183.3 109.4ZM181.6 103.3C181.8 102.8 181.9 102.7 182 102.7 182.2 102.7 182.2 102.9 182.4 103.2 182.6 103.8 185.1 110 186 112.2 186.6 113.5 187 113.7 187.4 113.8 187.6 113.9 187.8 113.9 188 113.9 188.1 113.9 188.2 114 188.2 114.1 188.2 114.1 188 114.2 187.8 114.2 187.6 114.2 186.4 114.2 185.4 114.1 185.1 114.1 184.8 114.1 184.8 114 184.8 114 184.9 114 184.9 113.9 185 113.9 185.2 113.8 185.1 113.5L183.7 110.1C183.7 110.1 183.7 110 183.6 110L180 110C180 110 179.9 110.1 179.9 110.2L179 112.5C178.9 112.9 178.8 113.3 178.8 113.5 178.8 113.8 179 113.9 179.3 113.9L179.4 113.9C179.6 113.9 179.6 114 179.6 114.1 179.6 114.1 179.5 114.2 179.4 114.2 179 114.2 178.2 114.1 178 114.1 177.8 114.1 177.1 114.2 176.4 114.2 176.2 114.2 176.1 114.1 176.1 114.1 176.1 114 176.2 113.9 176.3 113.9 176.4 113.9 176.6 113.9 176.7 113.9 177.4 113.8 177.7 113.3 178 112.5L181.6 103.3ZM192.1 109.9C192.1 111.3 192.1 112.5 192.2 113.1 192.2 113.5 192.3 113.8 192.7 113.9 192.9 113.9 193.3 113.9 193.4 113.9 193.5 113.9 193.5 114 193.5 114.1 193.5 114.1 193.5 114.2 193.3 114.2 192.4 114.2 191.4 114.1 191.4 114.1 191.3 114.1 190.3 114.2 189.8 114.2 189.7 114.2 189.6 114.1 189.6 114.1 189.6 114 189.6 113.9 189.7 113.9 189.9 113.9 190.1 113.9 190.2 113.9 190.5 113.8 190.5 113.5 190.6 113.1 190.7 112.5 190.7 111.3 190.7 109.9L190.7 107.2C190.7 104.9 190.7 104.5 190.7 104.1 190.6 103.6 190.5 103.3 190.2 103.3 190 103.2 189.8 103.2 189.7 103.2 189.6 103.2 189.6 103.1 189.6 103.1 189.6 103 189.6 103 189.8 103 190.3 103 191.3 103 191.4 103 191.4 103 192.4 103 192.9 103 193.1 103 193.1 103 193.1 103.1 193.1 103.1 193.1 103.2 193 103.2 192.9 103.2 192.8 103.2 192.6 103.2 192.2 103.3 192.1 103.5 192.1 104.1 192.1 104.5 192.1 104.9 192.1 107.2L192.1 109.9ZM197.5 103.8C197.7 103.9 197.7 104 197.7 104.1 197.7 104.1 197.6 104.2 197.5 104.2 197.3 104.2 196.6 104 196.3 103.8 196.1 103.7 196 103.7 196 103.4 196 102.2 196.9 100.7 197.5 100 197.6 99.9 197.7 99.8 197.7 99.8 197.8 99.8 197.8 99.9 197.8 99.9 197.8 100 197.8 100 197.8 100.1 197.5 100.7 197.2 101.6 197.2 102.6 197.2 103.2 197.4 103.6 197.5 103.8ZM203.2 109.9C203.2 111.3 203.2 112.5 203.3 113.1 203.3 113.5 203.4 113.8 203.8 113.9 204.1 113.9 204.4 113.9 204.5 113.9 204.6 113.9 204.7 114 204.7 114.1 204.7 114.1 204.6 114.2 204.4 114.2 203.6 114.2 202.6 114.1 202.5 114.1 202.4 114.1 201.4 114.2 201 114.2 200.8 114.2 200.7 114.1 200.7 114.1 200.7 114 200.8 113.9 200.9 113.9 201 113.9 201.2 113.9 201.3 113.9 201.6 113.8 201.7 113.5 201.7 113.1 201.8 112.5 201.8 111.3 201.8 109.9L201.8 107.2C201.8 104.9 201.8 104.5 201.8 104.1 201.7 103.6 201.6 103.3 201.3 103.3 201.1 103.2 200.9 103.2 200.8 103.2 200.7 103.2 200.7 103.1 200.7 103.1 200.7 103 200.8 103 200.9 103 201.4 103 202.4 103 202.5 103 202.6 103 203.6 103 204 103 204.2 103 204.3 103 204.3 103.1 204.3 103.1 204.2 103.2 204.1 103.2 204 103.2 203.9 103.2 203.8 103.2 203.3 103.3 203.3 103.5 203.2 104.1 203.2 104.5 203.2 104.9 203.2 107.2L203.2 109.9ZM83.7 137.6C83.8 137.6 83.9 137.6 83.9 137.4L83.9 136.7C83.9 131.8 83.9 130.9 83.8 129.9 83.7 128.8 83.5 128.3 82.4 128.1 82.2 128 81.6 128 81.2 128 80.8 128 80.6 127.9 80.6 127.7 80.6 127.5 80.9 127.4 81.3 127.4 83 127.4 85.1 127.5 85.9 127.5 86.7 127.5 88.7 127.4 90 127.4 90.4 127.4 90.6 127.5 90.6 127.7 90.6 127.9 90.4 128 90.1 128 89.8 128 89.5 128 89.1 128.1 88.3 128.3 88 128.8 87.9 129.9 87.9 130.9 87.9 131.8 87.9 136.7L87.9 142.4C87.9 145.3 87.9 147.8 88 149.2 88.1 150.1 88.3 150.8 89.3 150.9 89.7 151 90.4 151.1 90.9 151.1 91.3 151.1 91.4 151.2 91.4 151.3 91.4 151.6 91.2 151.7 90.8 151.7 88.7 151.7 86.7 151.6 85.8 151.6 85.1 151.6 83 151.7 81.8 151.7 81.3 151.7 81.1 151.6 81.1 151.3 81.1 151.2 81.2 151.1 81.6 151.1 82.1 151.1 82.5 151 82.8 150.9 83.4 150.8 83.6 150.1 83.7 149.2 83.9 147.8 83.9 145.3 83.9 142.4L83.9 139.5C83.9 139.4 83.8 139.3 83.7 139.3L71.4 139.3C71.3 139.3 71.2 139.4 71.2 139.5L71.2 142.4C71.2 145.3 71.2 147.8 71.4 149.2 71.5 150.1 71.7 150.8 72.7 150.9 73.1 151 73.8 151.1 74.3 151.1 74.6 151.1 74.8 151.2 74.8 151.3 74.8 151.6 74.5 151.7 74.2 151.7 72.1 151.7 70.1 151.6 69.2 151.6 68.4 151.6 66.4 151.7 65.1 151.7 64.7 151.7 64.5 151.6 64.5 151.3 64.5 151.2 64.6 151.1 65 151.1 65.5 151.1 65.9 151 66.2 150.9 66.8 150.8 67 150.1 67.1 149.2 67.2 147.8 67.2 145.3 67.2 142.4L67.2 136.7C67.2 131.8 67.2 130.9 67.2 129.9 67.1 128.8 66.9 128.3 65.8 128.1 65.5 128 65 128 64.5 128 64.2 128 64 127.9 64 127.7 64 127.5 64.2 127.4 64.7 127.4 66.4 127.4 68.4 127.5 69.3 127.5 70.1 127.5 72.1 127.4 73.3 127.4 73.8 127.4 74 127.5 74 127.7 74 127.9 73.8 128 73.4 128 73.2 128 72.9 128 72.5 128.1 71.6 128.3 71.4 128.8 71.3 129.9 71.2 130.9 71.2 131.8 71.2 136.7L71.2 137.4C71.2 137.6 71.3 137.6 71.4 137.6L83.7 137.6ZM94.7 138.9C94.7 134.8 94.7 134 94.6 133.2 94.6 132.2 94.3 131.9 93.7 131.7 93.4 131.6 93 131.6 92.7 131.6 92.4 131.6 92.2 131.5 92.2 131.3 92.2 131.1 92.4 131 92.9 131 93.9 131 95.9 131.1 96.7 131.1 97.4 131.1 99.2 131 100.3 131 100.6 131 100.9 131.1 100.9 131.3 100.9 131.5 100.7 131.6 100.4 131.6 100.1 131.6 99.9 131.6 99.6 131.7 98.8 131.8 98.6 132.2 98.5 133.2 98.5 134 98.5 134.8 98.5 138.9L98.5 143.7C98.5 146.4 98.5 148.5 98.6 149.7 98.7 150.4 98.9 150.8 99.7 151 100.1 151 100.7 151.1 101.2 151.1 101.5 151.1 101.6 151.2 101.6 151.4 101.6 151.6 101.4 151.7 101.1 151.7 99.2 151.7 97.3 151.6 96.5 151.6 95.9 151.6 93.9 151.7 92.8 151.7 92.5 151.7 92.3 151.6 92.3 151.4 92.3 151.2 92.4 151.1 92.7 151.1 93.1 151.1 93.5 151 93.7 151 94.3 150.8 94.5 150.5 94.6 149.7 94.7 148.5 94.7 146.4 94.7 143.7L94.7 138.9ZM109.9 143.7C109.9 147.2 109.9 149 110.5 149.5 111 149.9 112.1 150.1 114.3 150.1 115.8 150.1 116.9 150 117.6 149.3 117.9 148.9 118.2 148.2 118.3 147.6 118.3 147.4 118.4 147.2 118.6 147.2 118.8 147.2 118.8 147.5 118.8 147.8 118.8 148.2 118.7 150.2 118.4 151 118.2 151.6 118.1 151.7 116.6 151.7 114.6 151.7 113 151.7 111.6 151.6 110.2 151.6 109 151.6 107.8 151.6 107.5 151.6 106.9 151.6 106.2 151.6 105.5 151.6 104.8 151.7 104.3 151.7 103.9 151.7 103.7 151.6 103.7 151.4 103.7 151.2 103.8 151.1 104.2 151.1 104.6 151.1 104.9 151 105.2 151 105.7 150.8 105.9 150.3 106 149.5 106.1 148.4 106.1 146.2 106.1 143.7L106.1 138.9C106.1 134.8 106.1 134 106.1 133.2 106 132.2 105.8 131.9 104.9 131.7 104.6 131.6 104.3 131.6 103.9 131.6 103.6 131.6 103.5 131.5 103.5 131.3 103.5 131.1 103.7 131 104.1 131 105.4 131 107.2 131.1 108 131.1 108.6 131.1 110.9 131 112 131 112.4 131 112.6 131.1 112.6 131.3 112.6 131.5 112.5 131.6 112.1 131.6 111.8 131.6 111.3 131.6 111 131.7 110.3 131.8 110 132.2 110 133.2 109.9 134 109.9 134.8 109.9 138.9L109.9 143.7ZM138.4 141.8C138.4 135.8 134.7 132.1 130.2 132.1 127.1 132.1 123.4 133.8 123.4 140.5 123.4 146.1 126.6 150.5 131.9 150.5 133.9 150.5 138.4 149.6 138.4 141.8ZM119.2 141.3C119.2 136.7 122.5 130.7 131 130.7 138.1 130.7 142.6 134.6 142.6 140.9 142.6 147.1 138 152 130.7 152 122.5 152 119.2 146.2 119.2 141.3Z"/></svg>